<?xml version="1.0" standalone="no"?>
<!DOCTYPE svg PUBLIC "-//W3C//DTD SVG 1.1//EN" "http://www.w3.org/Graphics/SVG/1.1/DTD/svg11.dtd" >
<svg xmlns="http://www.w3.org/2000/svg">
<metadata>Generated by IcoMoon</metadata>
<defs>
<font id="icomoon" horiz-adv-x="1024">
<font-face units-per-em="1024" ascent="960" descent="-64" />
<missing-glyph horiz-adv-x="1024" />
<glyph unicode="&#x20;" horiz-adv-x="512" d="" />
<glyph unicode="&#xe900;" glyph-name="Aereo" horiz-adv-x="1152" d="M960 576h-228.58l-210.2 367.88c-5.627 9.7-15.963 16.12-27.798 16.12-0.001 0-0.001 0-0.002 0h-131c-21.26 0-36.6-20.34-30.76-40.78l98.060-343.22h-205.72l-86.4 115.2c-6.040 8.060-15.54 12.8-25.6 12.8h-79.98c-20.82 0-36.1-19.56-31.040-39.76l63.020-216.24-63.020-216.24c-5.060-20.2 10.22-39.76 31.040-39.76h79.98c10.080 0 19.56 4.74 25.6 12.8l86.4 115.2h205.72l-98.060-343.2c-5.84-20.44 9.5-40.8 30.76-40.8h131c11.48 0 22.080 6.16 27.78 16.12l210.22 367.88h228.58c70.7 0 192 57.3 192 128s-121.3 128-192 128z" />
<glyph unicode="&#xe901;" glyph-name="Ambulanza" horiz-adv-x="1280" d="M1248 256h-32v216.2c0 25.4-10.2 49.8-28.2 67.8l-199.8 199.8c-18 18-42.4 28.2-67.8 28.2h-88.2v96c0 53-43 96-96 96h-640c-53 0-96-43-96-96v-640c0-53 43-96 96-96h32c0-106 86-192 192-192s192 86 192 192h256c0-106 86-192 192-192s192 86 192 192h96c17.6 0 32 14.4 32 32v64c0 17.6-14.4 32-32 32zM320 32c-53 0-96 43-96 96s43 96 96 96 96-43 96-96-43-96-96-96zM608 528c0-8.8-7.2-16-16-16h-112v-112c0-8.8-7.2-16-16-16h-96c-8.8 0-16 7.2-16 16v112h-112c-8.8 0-16 7.2-16 16v96c0 8.8 7.2 16 16 16h112v112c0 8.8 7.2 16 16 16h96c8.8 0 16-7.2 16-16v-112h112c8.8 0 16-7.2 16-16v-96zM960 32c-53 0-96 43-96 96s43 96 96 96 96-43 96-96-43-96-96-96zM1120 448h-288v224h88.2l199.8-199.8v-24.2z" />
<glyph unicode="&#xe902;" glyph-name="Arbre-Magique" horiz-adv-x="768" d="M757.88 317.18l-188.48 194.82h98.44c30.6 0 47.32 33.2 27.72 55.060l-226.66 253.020c6.86 13.22 11.1 28 11.1 43.92 0 53.020-42.98 96-96 96s-96-42.98-96-96c0-15.92 4.24-30.7 11.1-43.92l-226.66-253.020c-19.6-21.86-2.88-55.060 27.72-55.060h98.44l-188.48-194.82c-23.5-24.3-3.44-61.18 33.28-61.18h276.6v-64h-224c-17.68 0-32-14.32-32-32v-192c0-17.68 14.32-32 32-32h576c17.68 0 32 14.32 32 32v192c0 17.68-14.32 32-32 32h-224v64h276.6c36.72 0 56.78 36.88 33.28 61.18zM384 896.040c17.7 0 32.040-14.34 32.040-32.040 0-17.68-14.34-32.040-32.040-32.040s-32.040 14.36-32.040 32.040c0 17.7 14.34 32.040 32.040 32.040zM608 96v-64h-448v64h448z" />
<glyph unicode="&#xe903;" glyph-name="Auto" d="M1000 608h-119.8l-33.2 83.2c-34.2 85.6-115.8 140.8-208 140.8h-254c-92.2 0-173.8-55.2-208-140.8l-33.2-83.2h-119.8c-15.6 0-27-14.6-23.2-29.8l12-48c2.6-10.6 12.2-18.2 23.2-18.2h40.2c-27-23.4-44.2-57.6-44.2-96v-96c0-32.2 12.4-61.4 32-83.8v-108.2c0-35.4 28.6-64 64-64h64c35.4 0 64 28.6 64 64v64h512v-64c0-35.4 28.6-64 64-64h64c35.4 0 64 28.6 64 64v108.2c19.6 22.4 32 51.6 32 83.8v96c0 38.4-17.2 72.6-44.2 96h40.2c11 0 20.6 7.6 23.2 18.2l12 48c3.8 15.2-7.6 29.8-23.2 29.8v0zM295.8 643.6c14.6 36.4 49.8 60.4 89.2 60.4h254c39.2 0 74.6-23.8 89.2-60.4l39.8-99.6h-512l39.8 99.6zM192 320.4c-38.4 0-64 25.6-64 63.8s25.6 63.8 64 63.8 96-57.4 96-95.8-57.6-31.8-96-31.8v0zM832 320.4c-38.4 0-96-6.4-96 32s57.6 95.6 96 95.6 64-25.6 64-63.8-25.6-63.8-64-63.8z" />
<glyph unicode="&#xe904;" glyph-name="Batteria" d="M960 704h-64v96c0 17.68-14.32 32-32 32h-192c-17.68 0-32-14.32-32-32v-96h-256v96c0 17.68-14.32 32-32 32h-192c-17.68 0-32-14.32-32-32v-96h-64c-35.34 0-64-28.66-64-64v-512c0-35.34 28.66-64 64-64h896c35.34 0 64 28.66 64 64v512c0 35.34-28.66 64-64 64zM384 432c0-8.84-7.16-16-16-16h-224c-8.84 0-16 7.16-16 16v32c0 8.84 7.16 16 16 16h224c8.84 0 16-7.16 16-16v-32zM896 432c0-8.84-7.16-16-16-16h-80v-80c0-8.84-7.16-16-16-16h-32c-8.84 0-16 7.16-16 16v80h-80c-8.84 0-16 7.16-16 16v32c0 8.84 7.16 16 16 16h80v80c0 8.84 7.16 16 16 16h32c8.84 0 16-7.16 16-16v-80h80c8.84 0 16-7.16 16-16v-32z" />
<glyph unicode="&#xe905;" glyph-name="Bicicletta" horiz-adv-x="1280" d="M800 768c53.019 0 96 42.981 96 96s-42.981 96-96 96c-53.019 0-96-42.981-96-96v0c0-53.019 42.981-96 96-96v0zM792 526c10.819-8.722 24.733-14 39.88-14 0.042 0 0.084 0 0.127 0h127.993c35.346 0 64 28.654 64 64s-28.654 64-64 64v0h-105.56l-142.44 114c-10.844 8.763-24.798 14.067-39.991 14.067-15.942 0-30.52-5.84-41.711-15.496l0.082 0.069-224-192c-13.713-11.807-22.343-29.189-22.343-48.587 0-22.116 11.218-41.613 28.275-53.109l0.228-0.145 163.46-109.040v-221.76c0-35.346 28.654-64 64-64s64 28.654 64 64v0 256c-0.004 22.111-11.22 41.601-28.272 53.095l-0.228 0.145-82.72 55.14 116.5 99.84zM1024 448c-141.385 0-256-114.615-256-256s114.615-256 256-256c141.385 0 256 114.615 256 256v0c0 141.385-114.615 256-256 256v0zM1024 64c-70.692 0-128 57.308-128 128s57.308 128 128 128c70.692 0 128-57.308 128-128v0c0-70.692-57.308-128-128-128v0zM256 448c-141.385 0-256-114.615-256-256s114.615-256 256-256c141.385 0 256 114.615 256 256v0c0 141.385-114.615 256-256 256v0zM256 64c-70.692 0-128 57.308-128 128s57.308 128 128 128c70.692 0 128-57.308 128-128v0c0-70.692-57.308-128-128-128v0z" />
<glyph unicode="&#xe906;" glyph-name="Bus" d="M976 704h-16v96c0 89.6-198.4 160-448 160s-448-70.4-448-160v-96h-16c-26.5 0-48-21.48-48-48v-160c0-26.5 21.5-48 48-48h16v-320c0-35.34 28.66-64 64-64v-64c0-35.34 28.66-64 64-64h64c35.34 0 64 28.66 64 64v64h384v-64c0-35.34 28.66-64 64-64h64c35.34 0 64 28.66 64 64v64h12.8c32 0 51.2 25.6 51.2 51.2v332.8h16c26.5 0 48 21.5 48 48v160c0 26.52-21.5 48-48 48zM224 160c-35.34 0-64 28.66-64 64s28.66 64 64 64 64-28.66 64-64-28.66-64-64-64zM256 384c-35.34 0-64 28.66-64 64v256c0 35.34 28.66 64 64 64h512c35.34 0 64-28.66 64-64v-256c0-35.34-28.66-64-64-64h-512zM800 160c-35.34 0-64 28.66-64 64s28.66 64 64 64 64-28.66 64-64-28.66-64-64-64z" />
<glyph unicode="&#xe907;" glyph-name="Cacca" d="M902.8 221.8c34.6 26.2 57.2 67.4 57.2 114.2 0 79.6-64.4 144-144 144h-28.2c26.8 23.4 44.2 57.6 44.2 96 0 70.6-57.4 128-128 128h-11.8c7.2 20.2 11.8 41.4 11.8 64 0 106-86 192-192 192-10.4 0-20.4-1.4-30.2-3 18.8-26.2 30.2-58.2 30.2-93 0-88.4-71.6-160-160-160h-32c-70.6 0-128-57.4-128-128 0-38.4 17.4-72.6 44.2-96h-28.2c-79.6 0-144-64.4-144-144 0-46.8 22.6-88 57.2-114.2-68.6-11-121.2-70-121.2-141.8 0-79.6 64.4-144 144-144h736c79.6 0 144 64.4 144 144 0 71.8-52.6 130.8-121.2 141.8zM384 448c35.4 0 64-28.6 64-64s-28.6-64-64-64-64 28.6-64 64 28.6 64 64 64zM703 170c-21-55.8-117-106-191-106s-170 50.2-191 106c-4 10.6 4 22 15.6 22h350.8c11.6 0 19.6-11.4 15.6-22zM640 320c-35.4 0-64 28.6-64 64s28.6 64 64 64 64-28.6 64-64-28.6-64-64-64z" />
<glyph unicode="&#xe908;" glyph-name="Camion" horiz-adv-x="1008" d="M982.785 296.794h-25.205v170.247c0 20.004-8.033 39.212-22.206 53.399l-157.341 157.341c-14.177 14.177-33.392 22.206-53.399 22.206h-69.458v75.6c0 41.732-33.867 75.6-75.6 75.6h-503.976c-41.732 0-75.6-33.867-75.6-75.6v-503.976c0-41.732 33.867-75.6 75.6-75.6h25.205c0-83.472 67.719-151.199 151.199-151.199s151.199 67.719 151.199 151.199h201.594c0-83.472 67.719-151.199 151.199-151.199s151.199 67.719 151.199 151.199h75.6c13.863 0 25.205 11.342 25.205 25.205v50.394c0 13.863-11.342 25.205-25.205 25.205zM252.010 120.405c-41.732 0-75.6 33.867-75.6 75.6s33.867 75.6 75.6 75.6 75.6-33.867 75.6-75.6-33.867-75.6-75.6-75.6zM755.986 120.405c-41.732 0-75.6 33.867-75.6 75.6s33.867 75.6 75.6 75.6 75.6-33.867 75.6-75.6-33.867-75.6-75.6-75.6zM881.98 447.993h-226.796v176.389h69.458l157.341-157.341v-19.061z" />
<glyph unicode="&#xe909;" glyph-name="Camion2" horiz-adv-x="1280" d="M1248 256h-32v216.2c0 25.4-10.2 49.8-28.2 67.8l-199.8 199.8c-18 18-42.4 28.2-67.8 28.2h-88.2v96c0 53-43 96-96 96h-512c-53 0-96-43-96-96v-96h-112c-8.8 0-16-7.2-16-16v-32c0-8.8 7.2-16 16-16h544c8.8 0 16-7.2 16-16v-32c0-8.8-7.2-16-16-16h-480c-8.8 0-16-7.2-16-16v-32c0-8.8 7.2-16 16-16h416c8.8 0 16-7.2 16-16v-32c0-8.8-7.2-16-16-16h-480c-8.8 0-16-7.2-16-16v-32c0-8.8 7.2-16 16-16h416c8.8 0 16-7.2 16-16v-32c0-8.8-7.2-16-16-16h-304v-256c0-106 86-192 192-192s192 86 192 192h256c0-106 86-192 192-192s192 86 192 192h96c17.6 0 32 14.4 32 32v64c0 17.6-14.4 32-32 32zM320 32c-53 0-96 43-96 96s43 96 96 96 96-43 96-96-43-96-96-96zM960 32c-53 0-96 43-96 96s43 96 96 96 96-43 96-96-43-96-96-96zM1120 448h-288v224h88.2l199.8-199.8v-24.2z" />
<glyph unicode="&#xe90a;" glyph-name="Caravan" horiz-adv-x="1280" d="M832 544c-17.673 0-32-14.327-32-32s14.327-32 32-32c17.673 0 32 14.327 32 32v0c0 17.673-14.327 32-32 32v0zM1248 320h-96v320c0 176.731-143.269 320-320 320v0h-704c-70.692 0-128-57.308-128-128v0-512c0-70.692 57.308-128 128-128v0h64c0-106.039 85.961-192 192-192s192 85.961 192 192v0h672c17.673 0 32 14.327 32 32v0 64c0 17.673-14.327 32-32 32v0zM384 96c-53.019 0-96 42.981-96 96s42.981 96 96 96c53.019 0 96-42.981 96-96v0c-0.057-52.996-43.004-95.943-95.995-96h-0.005zM512 576c0-35.346-28.654-64-64-64v0h-256c-35.346 0-64 28.654-64 64v0 128c0 35.346 28.654 64 64 64v0h256c35.346 0 64-28.654 64-64v0zM896 320h-256v384c0 35.346 28.654 64 64 64v0h128c35.346 0 64-28.654 64-64v0z" />
<glyph unicode="&#xe90b;" glyph-name="Carrello-montacarichi" horiz-adv-x="1152" d="M588.4 404.6c36-10 69.4-26.8 99-49.4l323 107.6c16.8 5.6 25.8 23.8 20.2 40.4l-120.8 362.4c-5.6 16.8-23.8 25.8-40.4 20.2l-122.2-40.8 66.2-198.8-121.4-40.2-66.2 198.8-123.2-41c-16.8-5.6-25.8-23.8-20.2-40.4l106-318.8zM1150.4 307.2l-20.4 60.8c-5.6 16.8-23.8 25.8-40.4 20.2l-427-142.4c-34.4 44-87.2 72.8-147 74l-198.8 596.4c-8.8 26.2-33.2 43.8-60.8 43.8h-224c-17.6 0-32-14.4-32-32v-64c0-17.6 14.4-32 32-32h177.8l184.4-553.4c-52.2-40.8-83.4-107.2-72-181 12.2-78.8 75.8-144.6 154.6-158.4 120.4-21.4 224.6 69.6 226.8 185.2l426.6 142.4c16.6 5.6 25.8 23.6 20.2 40.4zM512 32c-53 0-96 43-96 96s43 96 96 96 96-43 96-96-43-96-96-96z" />
<glyph unicode="&#xe90c;" glyph-name="Elicottero" horiz-adv-x="1280" d="M608 192h544c35.34 0 64 28.66 64 64 0 247.42-200.58 448-448 448v128h352c17.68 0 32 14.32 32 32v64c0 17.68-14.32 32-32 32h-832c-17.68 0-32-14.32-32-32v-64c0-17.68 14.32-32 32-32h352v-128h-416l-86.4 115.2c-6.040 8.060-15.54 12.8-25.6 12.8h-79.98c-20.82 0-36.1-19.56-31.040-39.76l63.020-216.24 320-128 172.8-230.4c11.797-15.614 30.328-25.6 51.192-25.6 0.003 0 0.006 0 0.008 0v0zM832 568.98c125.1-25.58 224.060-123.86 249.58-248.98h-249.58v248.98zM1270.74 42.38l-44.3 44.4c-12.5 12.52-32.48 12.2-45.28-0.020-14.18-13.54-27.68-22.5-49.28-22.5h-651.88c-17.68 0-32-14.36-32-32.060v-64.12c0-17.7 14.32-32.060 32-32.060h651.88c29.76 0 70.6 0.94 136.9 59.040 14.040 12.28 15.14 34.1 1.96 47.32z" />
<glyph unicode="&#xe90d;" glyph-name="Jet" horiz-adv-x="1280" d="M1088 512l-256 32-96 32h-48l-233.684 296h79.018c23.332 0 42.666 5.25 42.666 12s-19.334 12-42.666 12h-229.334v-24h32v-328h-96l-133.334 160h-69.332l-21.334-21.334v-138.666h16v-32h96v-5.332l-128-16v-85.334l128-16v-5.334h-96v-32h-16v-138.666l21.334-21.334h69.334l133.332 160h96v-328h-32v-24h229.334c23.334 0 42.666 5.25 42.666 12s-19.334 12-42.666 12h-79.018l233.684 296h48l96 32 256 32c192 42.666 192 53.166 192 64s0 21.334-192 64z" />
<glyph unicode="&#xe90e;" glyph-name="LocationMappa" d="M889.040 952.96l-831.56-383.8c-95.94-44.78-63.96-185.5 38.38-185.5h351.82v-351.82c0-102.34 140.72-134.34 185.5-38.38l383.8 831.56c31.98 76.78-51.18 159.94-127.94 127.94z" />
<glyph unicode="&#xe90f;" glyph-name="MarkerMappa" horiz-adv-x="768" d="M344.536-43.34c-290.596 421.278-344.536 464.514-344.536 619.34 0 212.078 171.922 384 384 384s384-171.922 384-384c0-154.826-53.94-198.062-344.536-619.34-19.070-27.548-59.86-27.546-78.928 0z" />
<glyph unicode="&#xe910;" glyph-name="MarkerMappa2" horiz-adv-x="768" d="M344.536-43.34c-290.596 421.278-344.536 464.514-344.536 619.34 0 212.078 171.922 384 384 384s384-171.922 384-384c0-154.826-53.94-198.062-344.536-619.34-19.070-27.548-59.86-27.546-78.928 0zM384 416c88.366 0 160 71.634 160 160s-71.634 160-160 160-160-71.634-160-160 71.634-160 160-160z" />
<glyph unicode="&#xe911;" glyph-name="Monster" horiz-adv-x="1280" d="M1248 512h-32v128c0 35.34-28.66 64-64 64h-147.2l-166.36 207.96c-23.66 29.388-59.632 48.035-99.959 48.040h-226.481c-35.34 0-64-28.66-64-64v-192h-352c-17.68 0-32-14.32-32-32v-160h-32c-17.68 0-32-14.32-32-32v-64c0-17.68 14.32-32 32-32h33.44c58.42 77.3 150.2 128 254.56 128s196.14-50.7 254.56-128h130.9c58.42 77.3 150.2 128 254.56 128s196.14-50.7 254.56-128h33.42c17.68 0 32 14.32 32 32v64c0 17.68-14.32 32-32 32zM576 704v128h162.48l102.4-128h-264.88zM1184 256h-10.4c-4.4 14.66-10.14 28.56-17.3 41.78l7.34 7.34c12.5 12.5 12.5 32.76 0 45.26l-45.26 45.26c-12.5 12.5-32.76 12.5-45.26 0l-7.34-7.34c-11.893 6.573-25.736 12.45-40.21 16.886l-1.57 0.414v10.4c0 17.68-14.32 32-32 32h-64c-17.68 0-32-14.32-32-32v-10.4c-14.66-4.4-28.56-10.14-41.78-17.3l-7.34 7.34c-12.5 12.5-32.76 12.5-45.26 0l-45.26-45.26c-12.5-12.5-12.5-32.76 0-45.26l7.34-7.34c-6.573-11.893-12.45-25.736-16.886-40.21l-0.414-1.57h-10.4c-17.68 0-32-14.32-32-32v-64c0-17.68 14.32-32 32-32h10.4c4.4-14.66 10.14-28.56 17.3-41.78l-7.34-7.34c-12.5-12.5-12.5-32.76 0-45.26l45.26-45.26c12.5-12.5 32.76-12.5 45.26 0l7.34 7.34c13.22-7.14 27.14-12.9 41.8-17.3v-10.4c0-17.68 14.32-32 32-32h64c17.68 0 32 14.32 32 32v10.4c14.66 4.4 28.56 10.14 41.8 17.3l7.34-7.34c12.5-12.5 32.76-12.5 45.26 0l45.26 45.26c12.5 12.5 12.5 32.76 0 45.26l-7.34 7.34c6.573 11.893 12.45 25.736 16.886 40.21l0.414 1.57h10.4c17.68 0 32 14.32 32 32v64c-0.040 17.68-14.36 32-32.040 32zM960 96c-53.020 0-96 42.98-96 96s42.98 96 96 96 96-42.98 96-96-42.98-96-96-96zM544 256h-10.4c-4.4 14.66-10.14 28.56-17.3 41.78l7.34 7.34c12.5 12.5 12.5 32.76 0 45.26l-45.26 45.26c-12.5 12.5-32.76 12.5-45.26 0l-7.34-7.34c-11.893 6.573-25.736 12.45-40.21 16.886l-1.57 0.414v10.4c0 17.68-14.32 32-32 32h-64c-17.68 0-32-14.32-32-32v-10.4c-14.66-4.4-28.56-10.14-41.78-17.3l-7.34 7.34c-12.5 12.5-32.76 12.5-45.26 0l-45.26-45.24c-12.5-12.5-12.5-32.76 0-45.26l7.34-7.34c-6.573-11.893-12.45-25.736-16.886-40.21l-0.414-1.57h-10.4c-17.68 0-32-14.32-32-32v-64c0-17.68 14.32-32 32-32h10.4c4.4-14.66 10.14-28.56 17.3-41.78l-7.34-7.34c-12.5-12.5-12.5-32.76 0-45.26l45.26-45.26c12.5-12.5 32.76-12.5 45.26 0l7.34 7.34c13.22-7.14 27.14-12.9 41.8-17.3v-10.4c0-17.68 14.32-32 32-32h64c17.68 0 32 14.32 32 32v10.4c14.66 4.4 28.56 10.14 41.8 17.3l7.34-7.34c12.5-12.5 32.76-12.5 45.26 0l45.26 45.26c12.5 12.5 12.5 32.76 0 45.26l-7.34 7.34c6.573 11.893 12.45 25.736 16.886 40.21l0.414 1.57h10.4c17.68 0 32 14.32 32 32v64c-0.040 17.66-14.36 31.98-32.040 31.98zM320 96c-53.020 0-96 42.98-96 96s42.98 96 96 96 96-42.98 96-96-42.98-96-96-96z" />
<glyph unicode="&#xe912;" glyph-name="Motocicletta" horiz-adv-x="1280" d="M1025.8 576c-29.8 0.2-58.2-4.6-84.8-13.8l-65.8 109.8h164.8c26.6 0 48 21.4 48 48v64c0 26.6-21.4 48-48 48h-90.6c-13.6 0-26.6-5.8-35.6-15.8l-75-83.4-45.6 76c-8.8 14.4-24.4 23.2-41.2 23.2h-160c-17.6 0-32-14.4-32-32v-32c0-17.6 14.4-32 32-32h132.8l38.4-64h-307.4c-35.4 46.2-89.8 80-199.8 80h-111c-27 0-49.6-22-49-49 0.4-26 21.8-47 48-47h112c49 0 77.4-21.8 95.6-49.6l-22.6-41c-26 7.8-53.8 11.4-82.6 10.4-134.6-4.8-243.2-115-246.4-249.8-3.2-144.2 112.6-262 256-262 119.2 0 219.4 81.6 248 192h168.4c27.4 0 49.2 22.8 48 50.2-4.2 94.2 35 187.4 112.4 250l25-41.6c-55.2-47.4-90.2-117.8-89.6-196.4 1-139.2 114.4-253 253.6-254.2 143.2-1.4 259.6 115 258.4 258.2-1.4 139.2-115.2 252.8-254.4 253.8zM256 160c-88.2 0-160 71.8-160 160s71.8 160 160 160c8.4 0 16.8-0.6 25-2l-83-150.8c-17.6-32 5.6-71.2 42-71.2h162.6c-24.8-56.4-81.2-96-146.6-96zM1183.8 311.2c-4.4-81.2-70-146.8-151-151-92.2-5-168.8 68.6-168.8 159.8 0 42.8 16.8 81.6 44.2 110.2l98.8-164.8c9-15.2 28.8-20 44-11l27.4 16.4c15.2 9 20 28.8 11 44l-97.2 161.8c10.4 2.2 21 3.2 31.8 3.2 91.2 0.2 164.6-76.4 159.8-168.6z" />
<glyph unicode="&#xe913;" glyph-name="Nave" horiz-adv-x="1280" d="M993.232 214.722l140.024 140.024c33.798 33.8 19.884 91.542-25.672 106.184l-83.584 26.866v280.204c0 35.346-28.654 64-64 64h-128v80c0 26.51-21.49 48-48 48h-288c-26.51 0-48-21.49-48-48v-80h-128c-35.346 0-64-28.654-64-64v-280.204l-83.584-26.866c-45.506-14.626-59.508-72.346-25.672-106.184l140.024-140.024c-35.112-87.296-115.594-150.722-238.768-150.722-26.51 0-48-21.49-48-48v-32c0-26.51 21.49-48 48-48 122.046 0 214.998 41.22 286.516 118.792 28.838-69.656 97.526-118.792 177.484-118.792h256c79.958 0 148.646 49.136 177.484 118.792 71.506-77.56 164.452-118.792 286.516-118.792 26.51 0 48 21.49 48 48v32c0 26.51-21.49 48-48 48-121.634 0-203.084 62.002-238.768 150.722zM384 704h512v-175.062l-236.416 75.99c-5.851 1.947-12.586 3.070-19.584 3.070s-13.733-1.123-20.036-3.199l0.452 0.129-236.416-75.99v175.062z" />
<glyph unicode="&#xe914;" glyph-name="Persona-Ceca" horiz-adv-x="768" d="M760.3-61.674c-2.366-1.458-5.233-2.322-8.302-2.322-5.767 0-10.821 3.051-13.637 7.627l-0.040 0.069-250.66 412.854c10.394 4.192 19.108 10.675 25.827 18.858l0.089 0.112 252.096-415.216c1.459-2.367 2.324-5.235 2.324-8.304 0-5.768-3.052-10.822-7.629-13.638l-0.069-0.040zM285.606 331.324l-65.080-178.97 72.24-176.57c13.386-32.72 50.754-48.384 83.466-35.002 32.714 13.384 48.386 50.752 35.002 83.468l-125.628 307.074zM192 784c48.602 0 88 39.398 88 88s-39.398 88-88 88-88-39.398-88-88 39.398-88 88-88zM501.674 445.744l-240 304c-9.466 11.99-23.5 18.216-37.674 18.224v0.032l-64-0.052c-14.292-0.006-28.434-6.322-37.888-18.48l-122.112-157v-191.388c0-26.91 22.022-49.582 48.928-49.072 26.082 0.496 47.072 21.792 47.072 47.992v159.532l32 41.142v-281.396l-108.146-297.388c-12.080-33.218 5.056-69.938 38.276-82.018 33.204-12.078 69.936 5.048 82.018 38.276l131.852 362.576v214.394l-62.812 79.632c-1.079 1.352-1.732 3.085-1.732 4.971 0 4.419 3.582 8.001 8.001 8.001 2.533 0 4.791-1.177 6.257-3.014l0.012-0.016 204.6-258.434c18.29-23.168 48.736-22.678 67.416-7.93 20.82 16.432 24.318 46.668 7.932 67.416z" />
<glyph unicode="&#xe915;" glyph-name="Pickup" horiz-adv-x="1280" d="M1248 384h-32v128c0 35.34-28.66 64-64 64h-96l-217.56 271.96c-23.66 29.388-59.632 48.035-99.959 48.040h-226.481c-35.34 0-64-28.66-64-64v-256h-320c-35.34 0-64-28.66-64-64v-128h-32c-17.68 0-32-14.32-32-32v-64c0-17.68 14.32-32 32-32h99.22c-1.52-10.54-3.22-21.040-3.22-32 0-123.72 100.28-224 224-224s224 100.28 224 224c0 10.96-1.7 21.46-3.22 32h134.46c-1.52-10.54-3.22-21.040-3.22-32 0-123.72 100.28-224 224-224s224 100.28 224 224c0 10.96-1.7 21.46-3.22 32h99.2c17.68 0 32 14.32 32 32v64c0 17.68-14.32 32-32 32zM576 768h162.48l153.6-192h-316.080v192zM352 128c-52.94 0-96 43.060-96 96s43.060 96 96 96 96-43.060 96-96-43.060-96-96-96zM928 128c-52.94 0-96 43.060-96 96s43.060 96 96 96 96-43.060 96-96-43.060-96-96-96z" />
<glyph unicode="&#xe916;" glyph-name="PinMappa" horiz-adv-x="768" d="M596.056 531.466l-24.47 236.534h84.414c26.51 0 48 21.49 48 48v96c0 26.51-21.49 48-48 48h-544c-26.51 0-48-21.49-48-48v-96c0-26.51 21.49-48 48-48h84.414l-24.47-236.534c-97.014-45.106-171.944-125.988-171.944-227.466 0-26.51 21.49-48 48-48h272v-208.014c0-2.484 0.578-4.934 1.69-7.156l48-96c5.882-11.764 22.728-11.786 28.622 0l48 96c1.065 2.085 1.689 4.547 1.69 7.156v0 208.014h272c26.51 0 48 21.49 48 48-0.002 102.366-75.966 182.84-171.946 227.466z" />
<glyph unicode="&#xe917;" glyph-name="PinMappa2" horiz-adv-x="576" d="M224 326.12v-313.38l44.040-66.040c9.5-14.24 30.44-14.24 39.94 0l44.020 66.040v313.38c-20.78-3.84-42.12-6.12-64-6.12s-43.22 2.28-64 6.12zM288 960c-159.060 0-288-128.94-288-288s128.94-288 288-288 288 128.94 288 288-128.94 288-288 288zM288 808c-75 0-136-61-136-136 0-13.24-10.76-24-24-24s-24 10.76-24 24c0 101.46 82.56 184 184 184 13.24 0 24-10.76 24-24s-10.76-24-24-24z" />
<glyph unicode="&#xe918;" glyph-name="Razzo" d="M1010.24 921.812c-2.379 11.063-13.316 22-24.414 24.375-64.394 13.813-114.812 13.813-165.011 13.813-206.464 0-330.277-110.406-422.71-256h-208.429c-32.695-0.031-71.113-23.75-85.773-52.969l-98.871-197.625c-2.917-6.275-4.741-13.593-5.028-21.303l-0.003-0.103c0.010-26.51 21.501-47.997 48.011-48h207.621l-44.949-44.938c-22.73-22.723-25.992-64.516 0-90.5l101.808-101.813c22.312-22.375 64.312-26.313 90.555 0l44.949 44.938v-207.688c0.010-26.51 21.501-47.997 48.011-48v0c7.817 0.298 15.136 2.121 21.769 5.178l-0.355-0.147 197.457 98.781c29.258 14.594 53.016 53 53.016 85.719v208.875c145.195 92.625 256.070 216.813 256.070 422.188 0.188 50.406 0.188 100.812-13.723 165.219zM768.081 624c-44.175 0.011-79.981 35.824-79.981 80 0 44.183 35.817 80 80 80s80-35.817 80-80v0c-0.026-44.179-35.839-79.985-80.018-80h-0.002z" />
<glyph unicode="&#xe919;" glyph-name="Rimorchio" horiz-adv-x="1280" d="M1248 320h-160v480c0 17.673-14.327 32-32 32v0h-1024c-17.673 0-32-14.327-32-32v0-576c0-17.673 14.327-32 32-32v0h99.22c15.66 108.42 108 192 220.78 192s205.12-83.58 220.78-192h675.22c17.673 0 32 14.327 32 32v0 64c0 17.673-14.327 32-32 32v0zM192 472.64c-24.359-12.375-45.345-26.146-64.628-41.918l0.628 0.498v256.78c0 8.837 7.163 16 16 16v0h32c8.837 0 16-7.163 16-16v0zM384 509.72c-10.62 0.98-21.14 2.28-32 2.28s-21.38-1.3-32-2.28v178.28c0 8.837 7.163 16 16 16v0h32c8.837 0 16-7.163 16-16v0zM576 431.22c-18.655 15.274-39.641 29.045-62.010 40.495l-1.99 0.925v215.36c0 8.837 7.163 16 16 16v0h32c8.837 0 16-7.163 16-16v0zM768 320h-64v368c0 8.837 7.163 16 16 16v0h32c8.837 0 16-7.163 16-16v0zM960 320h-64v368c0 8.837 7.163 16 16 16v0h32c8.837 0 16-7.163 16-16v0zM352 320c-88.366 0-160-71.634-160-160s71.634-160 160-160c88.366 0 160 71.634 160 160v0c0 88.366-71.634 160-160 160v0zM352 96c-35.346 0-64 28.654-64 64s28.654 64 64 64c35.346 0 64-28.654 64-64v0c0-35.346-28.654-64-64-64v0z" />
<glyph unicode="&#xe91a;" glyph-name="Spalaneve" horiz-adv-x="1280" d="M240 208c-26.6 0-48-21.4-48-48s21.4-48 48-48 48 21.4 48 48-21.4 48-48 48zM400 208c-26.6 0-48-21.4-48-48s21.4-48 48-48 48 21.4 48 48-21.4 48-48 48zM560 208c-26.6 0-48-21.4-48-48s21.4-48 48-48 48 21.4 48 48-21.4 48-48 48zM720 208c-26.6 0-48-21.4-48-48s21.4-48 48-48 48 21.4 48 48-21.4 48-48 48zM1197.2 109.2c-29 29-45.2 68.2-45.2 109.2v203.2c0 41 16.2 80.2 45.2 109.2l73.4 73.4c12.4 12.4 12.4 32.8 0 45.2l-45.2 45.2c-12.4 12.4-32.8 12.4-45.2 0l-73.4-73.4c-53-53-82.8-124.8-82.8-199.8v-37.4h-128v101.8c0 17.4-3.6 34.4-10.4 50.4l-156.6 365.6c-15.2 35.4-49.8 58.2-88.4 58.2h-288.6c-53 0-96-43-96-96v-224h-32c-53 0-96-43-96-96v-182.4c-75.4-36-128-112.4-128-201.6 0-123.8 100.2-224 224-224h512c123.8 0 224 100.2 224 224 0 34.6-8.4 66.8-22.4 96h86.4v-37.4c0-75 29.8-146.8 82.8-199.8l73.4-73.4c12.4-12.4 32.8-12.4 45.2 0l45.2 45.2c12.4 12.4 12.4 32.8 0 45.2l-73.4 73.4zM384 832h235.6l137.2-320h-244.8l-128 128v192zM736 64h-512c-53 0-96 43-96 96s43 96 96 96h512c53 0 96-43 96-96s-43-96-96-96z" />
<glyph unicode="&#xe91b;" glyph-name="Trattore" horiz-adv-x="1280" d="M1056 288c-97.2 0-176-78.8-176-176s78.8-176 176-176 176 78.8 176 176-78.8 176-176 176zM1056 64c-26.46 0-48 21.54-48 48s21.54 48 48 48 48-21.54 48-48-21.54-48-48-48zM1216 640h-128v80.4c0 28.24 9.4 55.52 26.3 77.68 8.84 11.6 7.1 28.12-2.64 38.98l-43.26 48.34c-13.32 14.9-36.64 13.84-49.4-1.56-37.84-45.64-59-103.46-59-163.44v-80.4h-204.66l-112.18 261.72c-14.989 34.551-48.806 58.28-88.166 58.28-0.033 0-0.066 0-0.1 0h-266.895c-52.94 0-96-43.060-96-96v-293.040c-17.26 13.46-41.92 12.92-57.78-2.94l-62.22-62.22c-17.18-17.18-17.18-45.040 0-62.22l10.12-10.12c-9.98-18.52-17.92-37.64-23.82-57.44h-14.3c-24.3 0-44-19.7-44-44v-88c0-24.3 19.7-44 44-44h14.28c5.92-19.82 13.84-38.92 23.82-57.46l-10.12-10.12c-17.18-17.18-17.18-45.040 0-62.22l62.22-62.22c17.18-17.18 45.040-17.18 62.22 0l10.12 10.12c18.52-9.98 37.64-17.92 57.44-23.82v-14.3c0-24.3 19.7-44 44-44h88c24.3 0 44 19.7 44 44v14.28c19.8 5.9 38.92 13.84 57.44 23.82l10.12-10.12c17.18-17.18 45.040-17.18 62.22 0l62.22 62.22c17.18 17.18 17.18 45.040 0 62.22l-10.12 10.12c9.98 18.52 17.92 37.64 23.82 57.44h14.32c24.3 0 44 19.7 44 44v12h161.080c43.82 57.98 112.64 96 190.92 96 37.28 0 72.14-9.22 103.6-24.4l101.64 101.64c12 12 18.74 28.28 18.74 45.26v101.52c0.020 35.34-28.64 64-63.98 64zM352 128c-88.36 0-160 71.64-160 160s71.64 160 160 160 160-71.64 160-160-71.64-160-160-160zM396 640h-76v192h213.78l82.3-192h-220.080z" />
<glyph unicode="&#xe91c;" glyph-name="Van" horiz-adv-x="1280" d="M1257.76 538.7l-268.98 322.76c-17.732 21.168-44.175 34.535-73.739 34.54h-851.041c-35.34 0-64-28.66-64-64v-576c0-35.34 28.66-64 64-64h64c0-106.040 85.96-192 192-192s192 85.96 192 192h256c0-106.040 85.96-192 192-192s192 85.96 192 192h64c35.34 0 64 28.66 64 64v221.24c0 22.46-7.88 44.2-22.24 61.46zM128 576v192h192v-192h-192zM320 96c-53.020 0-96 42.98-96 96s42.98 96 96 96 96-42.98 96-96-42.98-96-96-96zM640 576h-192v192h192v-192zM960 96c-53.020 0-96 42.98-96 96s42.98 96 96 96 96-42.98 96-96-42.98-96-96-96zM768 576v192h132.040l160-192h-292.040z" />
<glyph unicode="&#xe91d;" glyph-name="Autocarrata" horiz-adv-x="1376" d="M1336.538 245.865c0 0 0 0 0 0 0 2.162-0.72 3.603-0.72 5.045 0 0.72 0 0.72 0 1.441 0 1.441-0.72 2.883-1.441 3.603 0 0.72 0 0.72-0.72 1.441-0.72 1.441-1.441 2.883-2.162 4.323 0 0 0 0 0 0v0c0 0 0 0 0 0l-159.977 298.337c-7.926 14.412-22.339 23.060-38.914 23.060h-228.436c-24.502 0-43.958-19.457-43.958-43.958v-255.1h-446.785v20.177c414.357 170.787 381.929 156.374 389.135 160.699 19.457 12.251 20.898 31.708 21.619 31.708 0 0 0.72 5.045 0.72 7.206 0.72 23.060-13.692 43.237-32.428 49.002 0 0 8.648-2.883-353.104 109.535h19.457c14.412 0 26.663 11.53 26.663 26.663v178.714c12.251 0.72 23.060 10.809 23.060 23.78v44.679c0 12.971-10.809 23.78-23.78 23.78h-421.563c-12.971 0-23.78-10.809-23.78-23.78v-44.679c0-12.971 10.089-23.060 22.339-23.78v-176.552c0-14.412 11.53-26.663 26.663-26.663h15.854c196.008-61.253-28.825 8.648 523.892-162.86l-433.093-177.993c-5.045-0.72-9.368-5.045-9.368-10.809v-27.383h-69.179c-24.502 0-43.958-19.457-43.958-43.958v-121.064c0-24.502 19.457-43.958 43.958-43.958h92.239c1.441-77.827 64.135-140.521 141.962-140.521s141.242 62.694 141.962 140.521h423.725c1.441-77.827 64.135-140.521 141.962-140.521s141.242 62.694 141.962 140.521h90.078c24.502 0 43.958 19.457 43.958 43.958v121.064c2.162 1.441 2.162 2.883 2.162 4.323zM383.878 44.092c0-0.72 0-0.72 0 0-1.441-1.441-2.162-2.162-3.603-2.883 0 0-0.72-0.72-0.72-0.72-0.72-0.72-2.162-1.441-2.883-2.162-0.72 0-0.72-0.72-1.441-0.72-0.72-0.72-1.441-1.441-2.883-1.441-0.72 0-0.72-0.72-1.441-0.72-0.72-0.72-1.441-0.72-2.883-1.441-0.72 0-1.441-0.72-2.162-0.72s-1.441-0.72-2.162-0.72c-0.72 0-1.441-0.72-2.162-0.72s-1.441-0.72-2.162-0.72c-0.72 0-2.162 0-2.883-0.72-0.72 0-1.441 0-1.441 0-1.441 0-2.883 0-5.045 0v0 0c0 0 0 0 0 0-1.441 0-2.883 0-5.045 0-0.72 0-1.441 0-1.441 0-0.72 0-2.162 0-2.883 0.72-0.72 0-1.441 0-2.162 0.72-0.72 0-1.441 0.72-2.162 0.72s-1.441 0.72-2.162 0.72c-0.72 0-1.441 0.72-2.162 0.72-0.72 0.72-1.441 0.72-2.883 1.441-0.72 0-0.72 0.72-1.441 0.72-0.72 0.72-1.441 0.72-2.883 1.441-0.72 0-0.72 0.72-1.441 0.72-0.72 0.72-2.162 1.441-2.883 2.162 0 0-0.72 0.72-0.72 0.72-0.72 0.72-2.162 1.441-2.883 2.162 0 0-0.72 0-0.72 0.72-0.72 0.72-2.162 2.162-2.883 2.883 0 0 0 0 0 0-0.72 0.72-1.441 2.162-2.883 3.603 0 0 0 0 0 0-0.72 1.441-1.441 2.162-2.162 3.603 0 0 0 0 0 0-3.603 6.486-5.765 13.692-6.486 21.619 0 0 0 0 0 0v0c0 0.72 0 1.441 0 2.162 0 25.942 20.898 47.561 47.561 47.561 25.942 0 47.561-20.898 47.561-47.561 0-10.089-3.603-19.457-8.648-27.383 0 0 0 0 0 0-0.72-1.441-1.441-2.162-2.883-3.603 0 0 0 0 0 0 0.72-1.441 0-2.162-1.441-2.883zM1106.66 75.798c0 0 0 0 0 0 0-7.926-2.883-15.133-6.486-21.619 0 0 0 0 0 0-0.72-1.441-1.441-2.162-2.162-3.603 0 0 0 0 0 0-0.72-1.441-1.441-2.162-2.883-3.603 0 0 0 0 0 0-0.72-0.72-1.441-2.162-2.883-2.883 0 0 0 0-0.72-0.72s-2.162-1.441-2.883-2.162c0 0-0.72-0.72-0.72-0.72-0.72-0.72-1.441-1.441-2.883-2.162-0.72 0-0.72-0.72-1.441-0.72-0.72-0.72-1.441-1.441-2.883-1.441-0.72 0-0.72-0.72-1.441-0.72-0.72-0.72-1.441-0.72-2.883-1.441-0.72 0-1.441-0.72-2.162-0.72s-1.441-0.72-2.162-0.72c-0.72 0-1.441-0.72-2.162-0.72s-1.441-0.72-2.162-0.72c-0.72 0-2.162 0-2.883-0.72-0.72 0-1.441 0-1.441 0-1.441 0-2.883 0-5.045 0s-2.883 0-5.045 0c-0.72 0-1.441 0-1.441 0-0.72 0-2.162 0-2.883 0.72-0.72 0-1.441 0-2.162 0.72-0.72 0-1.441 0.72-2.162 0.72s-1.441 0.72-2.162 0.72c-0.72 0-1.441 0.72-2.162 0.72-0.72 0.72-1.441 0.72-2.883 1.441-0.72 0-0.72 0.72-1.441 0.72-0.72 0.72-1.441 0.72-2.883 1.441-0.72 0-0.72 0.72-1.441 0.72-0.72 0.72-2.162 1.441-2.883 2.162 0 0-0.72 0.72-0.72 0.72-0.72 0.72-2.162 1.441-2.883 2.162 0 0 0 0-0.72 0.72s-2.162 2.162-2.883 2.883c0 0 0 0 0 0-0.72 0.72-1.441 2.162-2.883 3.603 0 0 0 0 0 0-5.765 7.926-8.648 17.295-8.648 27.383 0 25.942 20.898 47.561 47.561 47.561 25.942 0 47.561-20.898 47.561-47.561 2.162-0.72 1.441-1.441 1.441-2.162v0zM948.124 285.499v210.421h157.816l113.138-210.421h-270.954z" />
<glyph unicode="&#xe91e;" glyph-name="Escavatore" horiz-adv-x="1296" d="M1268.068 582.607c-5.518 82.766-66.904 129.668-144.842 123.461-48.281-2.759-173.81 190.363-223.47 240.024-35.866 34.486-76.559-1.38-119.322-25.519-164.844-92.423-140.014-76.559-176.569-257.957-182.777 8.276-152.429 13.794-193.812-118.632-5.518-21.382-5.518-21.382-52.418-22.76-300.030-11.035-258.647 26.899-258.647-224.85 0-13.794 2.759-24.83 11.035-33.797-49.66-31.727-82.766-86.905-82.766-149.67 0-97.94 79.318-177.259 177.259-177.259h524.191c97.94 0 177.259 79.318 177.259 177.259 0 64.145-34.486 120.702-85.525 151.739 11.035 36.556-19.313 120.702-64.834 310.375-15.864 65.524-23.45 80.698-50.35 83.456 22.072 104.838 4.139 102.079 145.531 186.916 24.14-25.519 170.362-196.571 179.328-233.126l37.246-172.43c1.38-15.864-66.904-86.905 1.38-97.94 24.14-4.139 38.624 14.484 61.385 31.038 76.559 62.765 146.221 100.010 137.945 209.676zM729.393 39.793h-524.191c-40.693 0-73.111 33.107-73.111 73.111 0 40.693 33.107 73.111 73.111 73.111h524.191c40.693 0 73.111-33.107 73.111-73.111s-33.107-73.111-73.111-73.111zM504.543 430.868c-37.246 0-37.246 16.553-33.797 43.452 24.14 142.772 34.486 116.563 173.81 111.736 25.519-1.38 26.209-3.449 32.417-27.589 36.556-158.636 38.624-129.668-172.43-127.598zM213.478 161.876c-26.899 0-48.971-22.072-48.971-48.971s22.072-48.971 48.971-48.971 48.971 22.072 48.971 48.971-22.072 48.971-48.971 48.971zM381.772 161.876c-26.899 0-48.971-22.072-48.971-48.971s22.072-48.971 48.971-48.971 48.971 22.072 48.971 48.971-22.072 48.971-48.971 48.971zM550.754 161.876c-26.899 0-48.971-22.072-48.971-48.971s22.072-48.971 48.971-48.971 48.971 22.072 48.971 48.971-22.072 48.971-48.971 48.971zM719.046 161.876c-26.899 0-48.971-22.072-48.971-48.971s22.072-48.971 48.971-48.971 48.971 22.072 48.971 48.971-22.072 48.971-48.971 48.971z" />
<glyph unicode="&#xe91f;" glyph-name="MiniEscavatore" horiz-adv-x="1296" d="M1269.354 572.897c-5.529 80.175-64.969 125.791-140.997 120.262-11.059-0.691-25.573 8.985-42.851 24.191l-185.922 222.554c-13.824 16.587-36.631 24.191-58.058 18.662s-37.323-22.809-42.161-44.234l-83.631-414.696-145.144 272.317c-9.677 18.662-29.029 30.411-50.455 30.411h-294.434c-31.794 0-57.366-25.573-57.366-57.366v-162.423c-4.838 0.691-9.677 1.382-14.514 1.382v0c-51.146 0-92.616-41.47-92.616-92.616v-278.538c-22.117-29.029-35.249-65.66-35.249-104.366 0-95.381 77.41-172.79 172.79-172.79h510.768c95.381 0 172.79 77.41 172.79 172.79 0 67.734-39.396 127.173-96.763 155.511l102.983 512.15 151.364-181.085 34.558-160.349c1.382-15.205-64.969-84.322 1.382-95.381 23.499-4.147 37.323 13.824 59.44 30.411 74.645 60.131 142.379 96.071 134.085 203.202zM283.068 687.63h203.202l145.835-271.626h-349.036v271.626zM768.263 68.35c-1.382-2.073-2.765-3.455-4.147-5.529-2.765-3.455-6.22-6.912-9.677-9.677-12.441-10.367-28.337-16.587-45.616-16.587h-510.077c-2.073 0-4.838 0-6.912 0.691-0.691 0-1.382 0-2.073 0-1.382 0-2.765 0.691-4.147 0.691-0.691 0-2.073 0.691-2.765 0.691-1.382 0-2.765 0.691-3.455 0.691s-2.073 0.691-2.765 0.691c-1.382 0.691-2.073 0.691-3.455 1.382-0.691 0.691-2.073 0.691-2.765 1.382s-2.073 0.691-2.765 1.382c-0.691 0.691-2.073 1.382-2.765 1.382-0.691 0.691-1.382 0.691-2.765 1.382s-2.073 1.382-3.455 2.073c-0.691 0.691-1.382 0.691-2.073 1.382-1.382 0.691-2.073 1.382-3.455 2.765 0 0-0.691 0.691-0.691 0.691-7.603 6.22-13.824 14.514-17.97 23.499 0 0 0 0 0 0-0.691 2.073-1.382 3.455-2.073 5.529 0 0 0 0 0 0.691-0.691 2.073-1.382 3.455-2.073 5.529 0 0 0 0 0 0-0.691 2.073-0.691 4.147-1.382 6.22 0 0 0 0 0 0v0c-0.691 4.147-1.382 7.603-1.382 11.75 0 39.396 31.794 71.19 71.19 71.19h510.768c11.75 0 22.809-2.765 33.176-8.294v0c0 0 0 0 0 0 2.765-1.382 5.529-3.455 8.294-4.838 0 0 0 0 0 0 2.073-1.382 4.838-3.455 6.912-5.529 0 0 0.691-0.691 0.691-0.691 4.147-4.147 8.294-8.985 11.059-13.824 0-0.691 0.691-0.691 0.691-1.382 1.382-2.073 2.765-4.147 3.455-6.912 0-0.691 0.691-0.691 0.691-1.382 1.382-2.765 2.073-5.529 2.765-8.294 0-0.691 0-1.382 0.691-2.073 0.691-2.073 1.382-4.838 1.382-6.912 0-0.691 0-1.382 0.691-2.073 0.691-2.765 0.691-6.22 0.691-8.985 0-13.132-4.838-26.956-12.441-38.705zM254.731 108.437c0-26.264-21.426-47.69-47.69-47.69s-47.69 21.426-47.69 47.69c0 26.264 21.426 47.69 47.69 47.69s47.69-21.426 47.69-47.69zM418.535 108.437c0-26.264-21.426-47.69-47.69-47.69s-47.69 21.426-47.69 47.69c0 26.264 21.426 47.69 47.69 47.69 26.956 0 47.69-21.426 47.69-47.69zM583.031 108.437c0-26.264-21.426-47.69-47.69-47.69s-47.69 21.426-47.69 47.69c0 26.264 21.426 47.69 47.69 47.69s47.69-21.426 47.69-47.69zM746.837 108.437c0-26.264-21.426-47.69-47.69-47.69s-47.69 21.426-47.69 47.69c0 26.264 21.426 47.69 47.69 47.69s47.69-21.426 47.69-47.69z" />
<glyph unicode="&#xe920;" glyph-name="MiniPala" horiz-adv-x="1296" d="M1264.775 142.78l-156.928 92.861-84.944 219.554c-11.519 29.514-42.47 46.789-73.425 40.313-23.754-5.039-41.749-22.314-48.95-44.631l-67.665 19.436-230.352 429.75c-11.519 20.877-33.112 33.833-56.867 33.833h-333.287c-35.994 0-64.787-28.794-64.787-64.787v-183.56c-5.76 0.72-10.799 1.441-16.558 1.441v0c-58.308 0-105.096-46.789-105.096-105.096v-327.532c-16.558-28.794-25.916-61.185-25.916-96.459 0-107.978 87.822-195.799 195.799-195.799h578.036c79.184 0 147.57 46.789 177.8 114.454 2.878-1.441 6.48-2.161 9.358-2.878l256.985-50.391c4.319-0.72 8.637-1.441 12.235-1.441 26.636 0 50.391 16.558 60.469 41.749 12.956 29.514 1.441 63.347-25.916 79.184zM277.145 805.040h230.352l152.609-285.058-382.958 110.135v174.923zM831.427 100.31c-2.161-2.161-3.598-3.598-5.76-5.039-13.676-11.519-31.671-18.715-51.107-18.715h-578.036c-2.878 0-5.039 0-7.2 0.72-0.72 0-1.441 0-2.161 0-1.441 0-3.598 0.72-5.039 0.72-0.72 0-1.441 0-2.878 0.72-1.441 0-2.878 0.72-5.039 1.441-0.72 0-1.441 0.72-2.161 0.72-2.161 0.72-4.319 1.441-6.48 2.161-0.72 0-1.441 0.72-2.161 1.441-1.441 0.72-2.878 1.441-3.598 2.161s-2.161 1.441-2.878 1.441c-0.72 0.72-2.161 1.441-2.878 1.441-1.441 0.72-2.161 1.441-3.598 2.161-0.72 0.72-1.441 0.72-2.161 1.441-4.319 2.878-7.917 6.48-11.519 10.799 0 0-0.72 0.72-0.72 0.72-1.441 1.441-2.161 2.878-3.598 4.319 0 0 0 0.72-0.72 0.72-10.078 13.676-15.838 30.234-15.838 48.229 0 44.631 35.994 80.621 80.621 80.621h578.036c20.877 0 40.313-7.917 54.709-21.597 0 0 0 0 0 0 6.48-6.48 12.235-13.676 16.558-21.597 0 0 0-0.72 0.72-0.72 1.441-2.161 2.161-4.319 2.878-7.2 0-0.72 0.72-1.441 0.72-2.161 0.72-2.161 1.441-4.319 2.161-5.76 0-0.72 0.72-2.161 0.72-2.878 0.72-2.161 0.72-4.319 1.441-6.48 0-0.72 0-1.441 0.72-2.878 0-2.878 0.72-5.76 0.72-9.358 0 0 0 0 0 0-0.72-22.314-9.358-42.47-24.475-57.587zM259.87 157.897c0-29.514-23.754-53.989-53.989-53.989s-53.989 23.754-53.989 53.989 23.754 53.989 53.989 53.989 53.989-24.475 53.989-53.989zM445.591 157.897c0-29.514-23.754-53.989-53.989-53.989s-53.989 23.754-53.989 53.989 23.754 53.989 53.989 53.989 53.989-24.475 53.989-53.989zM631.312 157.897c0-29.514-23.754-53.989-53.989-53.989-29.514 0-53.989 23.754-53.989 53.989s23.754 53.989 53.989 53.989c30.234-0.72 53.989-24.475 53.989-53.989zM817.030 157.897c0-29.514-23.754-53.989-53.989-53.989s-53.989 23.754-53.989 53.989 23.754 53.989 53.989 53.989 53.989-24.475 53.989-53.989z" />
<glyph unicode="&#xe921;" glyph-name="Muletto" horiz-adv-x="1360" d="M1149.442 134.186h-226.008c-5.217 57.37-37.092 107.208-82.874 136.768v636.889c0 28.977-23.177 52.157-52.157 52.157s-52.157-23.177-52.157-52.157v-404.503l-93.304 174.438c-9.274 16.809-26.661 27.24-45.782 27.24h-269.478c-28.977 0-52.157-23.177-52.157-52.157v-187.766h-38.25c-43.466 0-78.811-35.351-78.811-78.811v-278.169c0-43.466 35.351-78.811 78.811-78.811h34.194c18.545-54.476 70.121-93.304 130.971-93.304s111.85 38.828 130.971 93.304h50.417c31.293-55.633 90.406-93.304 158.789-93.304s128.073 37.671 158.789 93.304h248.032c28.977 0 52.157 23.177 52.157 52.157s-23.177 52.74-52.157 52.74zM401.867 28.713c-25.499 0-45.782 20.861-45.782 45.782 0 25.499 20.861 45.782 45.782 45.782 25.499 0 45.782-20.861 45.782-45.782 0.579-24.92-20.283-45.782-45.782-45.782zM455.761 352.083v34.194c0 42.302-33.614 77.074-75.917 78.811v135.606h186.026l133.29-248.617h-243.397zM742.044 57.69c-33.614 0-60.269 27.24-60.269 60.269 0 33.614 27.24 60.269 60.269 60.269 33.614 0 60.269-27.24 60.269-60.269s-26.661-60.269-60.269-60.269z" />
<glyph unicode="&#xe922;" glyph-name="PalaGommata" horiz-adv-x="1504" d="M1497.546 199.105l-233.026 303.184c-10.858 14.199-30.068 17.54-45.102 7.517l-165.373-109.414c0 0-0.835-0.835-0.835-0.835-37.585 49.278-94.38 82.687-159.527 88.533-0.835 1.67-0.835 3.341-1.67 4.176l-0.835 1.67c0.835 9.187-0.835 18.375-5.011 26.727l-172.89 323.23c-8.352 15.869-24.221 25.057-41.761 25.057h-247.225c-26.727 0-47.607-21.716-47.607-47.607v-217.992h-6.682c-40.090-3.341-79.346-11.693-117.766-23.386v95.215c0 12.528-10.858 23.386-23.386 23.386h-46.772c-12.528 0-23.386-10.023-23.386-23.386s10.858-23.386 23.386-23.386h23.386v-88.533c-47.607-20.045-91.874-46.772-131.965-79.346-5.011-4.176-7.517-9.187-8.352-15.034l-6.682-56.795c-36.75-40.926-58.465-94.38-58.465-153.68 0-127.788 103.567-231.356 231.356-231.356 119.436 0 217.992 90.204 229.685 206.299h178.737c12.528-116.095 110.249-206.299 229.685-206.299 81.016 0 152.845 41.761 193.771 105.238 8.352-9.187 17.54-16.704 27.562-23.386 27.562-19.21 60.971-29.233 94.38-29.233 13.363 0 26.727 1.67 40.090 5.011l253.071 62.641c10.858 2.506 19.21 10.858 23.386 20.88s2.506 21.716-4.176 30.903zM307.36 242.536c-1.67-10.023-5.847-19.21-11.693-27.562-1.67-1.67-2.506-4.176-4.176-5.847-6.682-7.517-14.199-14.199-22.551-18.375-10.858-5.847-23.386-9.187-36.75-9.187-2.506 0-5.011 0-7.517 0-0.835 0-1.67 0-2.506 0-1.67 0-3.341 0.835-5.011 0.835-0.835 0-1.67 0-2.506 0.835-1.67 0-3.341 0.835-4.176 0.835s-1.67 0.835-2.506 0.835-4.176 1.67-5.847 1.67c-0.835 0-1.67 0.835-2.506 0.835-1.67 0.835-3.341 1.67-4.176 2.506s-1.67 0.835-2.506 1.67c-0.835 0.835-1.67 0.835-3.341 1.67-0.835 0.835-1.67 1.67-2.506 1.67-0.835 0.835-1.67 0.835-2.506 1.67s-1.67 1.67-3.341 2.506c0 0-0.835 0.835-0.835 0.835-2.506 1.67-4.176 4.176-6.682 6.682 0 0-0.835 0.835-0.835 0.835-0.835 0.835-1.67 2.506-3.341 4.176 0 0-0.835 0.835-0.835 0.835-0.835 1.67-1.67 2.506-2.506 4.176 0 0 0 0.835-0.835 0.835-7.517 11.693-11.693 25.057-11.693 40.090 0 16.704 5.847 32.574 15.034 45.102 0 0.835 0.835 0.835 0.835 1.67 1.67 2.506 3.341 4.176 5.011 5.847 0 0 0.835 0.835 0.835 0.835 2.506 2.506 4.176 4.176 6.682 6.682 0 0 0.835 0.835 0.835 0.835 1.67 1.67 4.176 3.341 6.682 4.176 0.835 0 1.67 0.835 1.67 0.835 2.506 1.67 5.011 2.506 7.517 4.176 0 0 0.835 0 0.835 0.835 2.506 0.835 5.847 2.506 8.352 3.341 0.835 0 1.67 0 2.506 0.835 2.506 0.835 5.011 0.835 6.682 1.67 0.835 0 1.67 0 2.506 0 3.341 0 6.682 0.835 9.187 0.835 13.363 0 25.892-3.341 36.75-9.187 8.352-5.011 16.704-10.858 22.551-18.375 1.67-1.67 3.341-4.176 4.176-5.847 5.847-8.352 9.187-17.54 11.693-27.562 0.835-5.011 1.67-10.023 1.67-15.869s2.506-10.858 1.67-15.869zM471.898 545.721v228.015h170.385l121.942-228.015h-292.327zM925.421 204.951c-0.835-0.835-2.506-2.506-3.341-3.341s-0.835-0.835-1.67-1.67-2.506-1.67-3.341-2.506c-0.835-0.835-1.67-0.835-2.506-1.67s-2.506-1.67-3.341-2.506c-0.835-0.835-1.67-0.835-2.506-1.67s-2.506-1.67-3.341-1.67c-0.835-0.835-1.67-0.835-3.341-1.67-0.835-0.835-2.506-0.835-3.341-1.67s-2.506-0.835-3.341-1.67c-0.835 0-2.506-0.835-3.341-0.835-1.67 0-2.506-0.835-4.176-0.835-0.835 0-1.67-0.835-3.341-0.835s-3.341-0.835-5.011-0.835c-0.835 0-1.67 0-2.506 0-2.506 0-5.011 0-7.517 0-13.363 0-25.892 3.341-36.75 9.187-24.221 13.363-40.090 38.42-40.090 67.653s16.704 54.289 40.090 67.653c10.858 5.847 23.386 9.187 36.75 9.187 2.506 0 5.847 0 8.352-0.835 0.835 0 1.67 0 2.506 0 1.67 0 4.176-0.835 5.847-0.835 0.835 0 1.67-0.835 2.506-0.835 1.67-0.835 3.341-0.835 5.011-1.67 0.835 0 1.67-0.835 2.506-0.835 1.67-0.835 3.341-1.67 5.011-1.67 0.835 0 1.67-0.835 2.506-0.835 1.67-0.835 3.341-1.67 5.011-2.506 0.835 0 1.67-0.835 1.67-0.835 1.67-0.835 3.341-2.506 5.011-3.341 0.835 0 0.835-0.835 1.67-0.835 1.67-1.67 3.341-2.506 5.011-4.176 0 0 0.835-0.835 0.835-0.835 1.67-1.67 3.341-3.341 5.011-5.847 0 0 0 0 0 0v0c11.693-13.363 18.375-30.903 18.375-49.278 0.835-22.551-7.517-40.926-20.88-55.124 0.835 0 0 0 0 0z" />
<glyph unicode="&#xe923;" glyph-name="RulloCompattatore" horiz-adv-x="1376" d="M1376.129 268.324c-0.765 22.175-18.349 42.055-39.759 45.872-2.296 0-5.348 0.765-7.644 0.765-14.531 159.802-148.331 284.436-311.194 284.436-52.76 0-102.459-13.001-146.036-35.933-0.765 3.826-1.531 7.644-3.061 11.47l-129.217 317.308c-6.879 17.584-24.471 29.054-43.586 29.054h-242.381c-23.706 0-43.586-17.584-46.638-41.29l-38.229-300.489c-64.23-13.766-128.452-25.993-191.917-39.759-26.758-5.348-48.934-25.993-58.873-51.229-12.236-31.35-22.941-62.7-35.933-94.050-26.758 0-54.291-10.705-68.813-34.411-16.818-22.941-12.236-53.525-13.001-80.284 0.765-25.228-1.531-51.229 1.531-75.692 1.531-0.765 3.826-3.061 5.348-3.826 20.645-2.296 41.29-0.765 61.169-0.765 1.531-123.869 102.459-224.797 226.328-224.797 113.929 0 207.97 84.11 224.032 193.447h208.735c46.638-113.929 158.271-193.447 289.019-193.447 129.217 0 240.085 78.753 287.488 190.386 21.41 0 43.586-0.765 64.996 0.765 8.409 3.061 5.348 13.001 6.879 19.88 0.765 26.758 0.765 54.291 0.765 82.579zM294.971 125.341c-41.29 0-75.692 33.646-75.692 75.692s33.646 75.692 75.692 75.692c41.29 0 75.692-33.646 75.692-75.692s-34.411-75.692-75.692-75.692zM466.243 603.224l28.289 223.267h168.976l90.989-223.267h-288.254z" />
<glyph unicode="&#xe924;" glyph-name="SollevatoreTelescopico" horiz-adv-x="1536" d="M1429.017 744.432h-271.736v159.379c0 31.077-25.499 56.581-56.581 56.581s-56.581-25.499-56.581-56.581v-69.331l-308.396 101.203c-2.389 0.794-4.782 1.594-7.172 1.594-0.794 0-1.594 0-2.389 0-1.594 0-2.389 0.794-3.983 0.794-0.794 0-2.389 0-3.189 0s-2.389 0-3.189 0c-0.794 0-2.389 0-3.189 0s-2.389 0-3.189 0c-0.794 0-2.389 0-3.189 0s-2.389 0-3.189-0.794c-0.794 0-1.594 0-2.389-0.794-1.594 0-2.389-0.794-3.983-0.794-0.794 0-0.794 0-1.594-0.794-1.594-0.794-3.189-0.794-4.782-1.594 0 0-0.794 0-0.794-0.794-1.594-0.794-3.189-1.594-4.782-2.389 0 0-0.794 0-0.794-0.794-1.594-0.794-3.189-1.594-4.782-2.389-0.794 0-0.794-0.794-1.594-1.594s-2.389-1.594-3.189-2.389c-1.594-1.594-3.189-3.189-5.578-4.782l-192.845-179.3h-20.722c-25.499 0-45.421-20.722-45.421-45.421v-16.734l-46.221-43.032h-139.456c-26.298 0-48.61-17.533-54.987-43.032l-74.109-302.019c-27.893-36.655-43.826-82.875-43.826-132.285 0-121.924 98.814-220.738 220.738-220.738 113.952 0 207.188 86.064 219.143 196.833h169.739c11.955-110.769 105.191-196.833 219.143-196.833 121.924 0 220.738 98.814 220.738 220.738 0 113.952-86.859 207.988-197.627 219.143-0.794 1.594-0.794 3.189-1.594 3.983l-0.794 1.594c0.794 8.766-0.794 17.533-4.782 25.499l-164.956 308.396c-7.967 15.139-23.11 23.905-39.843 23.905h-17.533l58.171 54.987 307.597-99.609c1.594-0.794 3.189-0.794 4.782-0.794v-4.782c0-31.077 25.499-56.581 56.581-56.581 2.389 0 4.782 0 6.377 0.794 2.389 0 4.782-0.794 6.377-0.794h314.768c31.077 0 56.581 25.499 56.581 56.581s-24.705 55.782-55.782 55.782zM343.66 141.19c-1.594-9.561-5.578-18.327-11.156-26.298-1.594-1.594-2.389-3.983-3.983-5.578-6.377-7.172-13.549-13.549-21.516-17.533-10.36-5.578-22.31-8.766-35.065-8.766-2.389 0-4.782 0-7.172 0-0.794 0-1.594 0-2.389 0-1.594 0-3.189 0.794-4.782 0.794-0.794 0-1.594 0-2.389 0.794-1.594 0-3.189 0.794-3.983 0.794s-1.594 0.794-2.389 0.794-3.983 1.594-5.578 1.594c-0.794 0-1.594 0.794-2.389 0.794-1.594 0.794-3.189 1.594-3.983 2.389s-1.594 0.794-2.389 1.594c-0.794 0.794-1.594 0.794-3.189 1.594-0.794 0.794-1.594 1.594-2.389 1.594-0.794 0.794-1.594 0.794-2.389 1.594s-1.594 1.594-3.189 2.389c0 0-0.794 0.794-0.794 0.794-2.389 1.594-3.983 3.983-6.377 6.377 0 0-0.794 0.794-0.794 0.794-0.794 0.794-1.594 2.389-3.189 3.189 0 0-0.794 0.794-0.794 0.794-0.794 1.594-1.594 2.389-2.389 3.983 0 0 0 0.794-0.794 0.794-7.172 11.156-11.156 23.905-11.156 38.249 0 15.938 5.578 31.077 13.549 43.032 0 0.794 0.794 0.794 0.794 1.594 1.594 2.389 3.189 3.983 4.782 5.578 0 0 0.794 0.794 0.794 0.794 2.389 2.389 3.983 3.983 6.377 6.377 0 0 0.794 0.794 0.794 0.794 1.594 1.594 3.983 3.189 6.377 3.983 0.794 0 1.594 0.794 1.594 0.794 2.389 1.594 4.782 2.389 7.172 3.983 0 0 0.794 0 0.794 0.794 2.389 0.794 5.578 2.389 7.967 3.189 0.794 0 1.594 0 2.389 0.794 2.389 0.794 4.782 0.794 6.377 1.594 0.794 0 1.594 0 2.389 0 3.189 0 6.377 0.794 8.766 0.794 12.75 0 24.705-3.189 35.065-8.766 7.967-4.782 15.938-10.36 21.516-17.533 1.594-1.594 3.189-3.983 3.983-5.578 5.578-7.967 8.766-16.734 11.156-26.298 0.794-4.782 1.594-9.561 1.594-15.139s3.189-9.561 2.389-14.344zM879.961 229.642c40.643 0 73.315-32.672 73.315-73.315s-32.672-73.315-73.315-73.315c-40.643 0-73.315 32.672-73.315 73.315s33.471 73.315 73.315 73.315zM779.553 430.459h-278.909v145.829l75.704 71.72h86.859l116.347-217.55z" />
<glyph unicode="&#xe925;" glyph-name="Uomo-in-piedi" horiz-adv-x="384" d="M192 960c70.692 0 128-57.308 128-128s-57.308-128-128-128-128 57.308-128 128 57.308 128 128 128zM288 672h-22.72c-45.422-20.886-99.18-21.788-146.56 0h-22.72c-53.020 0-96-42.98-96-96v-272c0-26.51 21.49-48 48-48h32v-272c0-26.51 21.49-48 48-48h128c26.51 0 48 21.49 48 48v272h32c26.51 0 48 21.49 48 48v272c0 53.020-42.98 96-96 96z" />
<glyph unicode="&#xe926;" glyph-name="Utente" horiz-adv-x="896" d="M448 448c141.4 0 256 114.6 256 256s-114.6 256-256 256-256-114.6-256-256 114.6-256 256-256zM627.2 384h-33.4c-44.4-20.4-93.8-32-145.8-32s-101.2 11.6-145.8 32h-33.4c-148.4 0-268.8-120.4-268.8-268.8v-83.2c0-53 43-96 96-96h704c53 0 96 43 96 96v83.2c0 148.4-120.4 268.8-268.8 268.8z" />
<glyph unicode="&#xe927;" glyph-name="Notifica" d="M512-64c70.64 0 127.94 57.3 127.94 128h-255.88c0-70.7 57.3-128 127.94-128zM942.78 235.42c-38.64 41.52-110.94 103.98-110.94 308.58 0 155.4-108.96 279.8-255.88 310.32v41.68c0 35.34-28.64 64-63.96 64s-63.96-28.66-63.96-64v-41.68c-146.92-30.52-255.88-154.92-255.88-310.32 0-204.6-72.3-267.060-110.94-308.58-12-12.9-17.32-28.32-17.22-43.42 0.22-32.8 25.96-64 64.2-64h767.6c38.24 0 64 31.2 64.2 64 0.1 15.1-5.22 30.54-17.22 43.42z" />
<glyph unicode="&#xe928;" glyph-name="Grafici" d="M1000 192c13.2 0 24-10.8 24-24v-80c0-13.2-10.8-24-24-24h-976c-13.2 0-24 10.8-24 24v720c0 13.2 10.8 24 24 24h80c13.2 0 24-10.8 24-24v-616h872zM745.4 641l-169.4-113-170.6 227.4c-10.2 13.6-31 12.6-39.8-2l-173.6-289.4v-208h768l-179.8 375.6c-6.4 13-22.8 17.4-34.8 9.4z" />
<glyph unicode="&#xe929;" glyph-name="Impostazioni" d="M819.36 552l-13.12-22.88c-4.8-8.48-15.040-12-24.16-8.64-18.88 7.040-36.16 17.12-51.36 29.76-7.36 6.080-9.28 16.8-4.48 25.12l13.12 22.88c-11.040 12.8-19.68 27.68-25.44 43.84h-26.4c-9.6 0-17.92 6.88-19.52 16.48-3.2 19.2-3.36 39.36 0 59.36 1.6 9.6 9.92 16.64 19.52 16.64h26.4c5.76 16.16 14.4 31.040 25.44 43.84l-13.12 22.88c-4.8 8.32-3.040 19.040 4.48 25.12 15.2 12.64 32.64 22.72 51.36 29.76 9.12 3.36 19.36-0.16 24.16-8.64l13.12-22.88c16.8 3.040 33.92 3.040 50.72 0l13.12 22.88c4.8 8.48 15.040 12 24.16 8.64 18.88-7.040 36.16-17.12 51.36-29.76 7.36-6.080 9.28-16.8 4.48-25.12l-13.12-22.88c11.040-12.8 19.68-27.68 25.44-43.84h26.4c9.6 0 17.92-6.88 19.52-16.48 3.2-19.2 3.36-39.36 0-59.36-1.6-9.6-9.92-16.64-19.52-16.64h-26.4c-5.76-16.16-14.4-31.040-25.44-43.84l13.12-22.88c4.8-8.32 3.040-19.040-4.48-25.12-15.2-12.64-32.64-22.72-51.36-29.76-9.12-3.36-19.36 0.16-24.16 8.64l-13.12 22.88c-16.64-3.040-33.92-3.040-50.72 0zM802.56 646.080c61.6-47.36 131.84 22.88 84.48 84.48-61.6 47.52-131.84-22.88-84.48-84.48zM618.080 399.84l53.92-26.88c16.16-9.28 23.2-28.96 16.8-46.56-14.24-38.72-42.24-74.24-68.16-105.28-11.84-14.24-32.32-17.76-48.48-8.48l-46.56 26.88c-25.6-21.92-55.36-39.36-87.84-50.72v-53.76c0-18.56-13.28-34.56-31.52-37.76-39.36-6.72-80.64-7.040-121.44 0-18.4 3.2-32 19.040-32 37.76v53.76c-32.48 11.52-62.24 28.8-87.84 50.72l-46.56-26.72c-16-9.28-36.64-5.76-48.48 8.48-25.92 31.040-53.28 66.56-67.52 105.12-6.4 17.44 0.64 37.12 16.8 46.56l53.28 26.88c-6.24 33.44-6.24 67.84 0 101.44l-53.28 27.040c-16.16 9.28-23.36 28.96-16.8 46.4 14.24 38.72 41.6 74.24 67.52 105.28 11.84 14.24 32.32 17.76 48.48 8.48l46.56-26.88c25.6 21.92 55.36 39.36 87.84 50.72v53.92c0 18.4 13.12 34.4 31.36 37.6 39.36 6.72 80.8 7.040 121.6 0.16 18.4-3.2 32-19.040 32-37.76v-53.76c32.48-11.52 62.24-28.8 87.84-50.72l46.56 26.88c16 9.28 36.64 5.76 48.48-8.48 25.92-31.040 53.12-66.56 67.36-105.28 6.4-17.44 0.16-37.12-16-46.56l-53.92-26.88c6.24-33.6 6.24-68 0-101.6zM429.92 366.080c94.72 123.2-45.92 263.84-169.12 169.12-94.72-123.2 45.92-263.84 169.12-169.12zM819.36 73.76l-13.12-22.88c-4.8-8.48-15.040-12-24.16-8.64-18.88 7.040-36.16 17.12-51.36 29.76-7.36 6.080-9.28 16.8-4.48 25.12l13.12 22.88c-11.040 12.8-19.68 27.68-25.44 43.84h-26.4c-9.6 0-17.92 6.88-19.52 16.48-3.2 19.2-3.36 39.36 0 59.36 1.6 9.6 9.92 16.64 19.52 16.64h26.4c5.76 16.16 14.4 31.040 25.44 43.84l-13.12 22.88c-4.8 8.32-3.040 19.040 4.48 25.12 15.2 12.64 32.64 22.72 51.36 29.76 9.12 3.36 19.36-0.16 24.16-8.64l13.12-22.88c16.8 3.040 33.92 3.040 50.72 0l13.12 22.88c4.8 8.48 15.040 12 24.16 8.64 18.88-7.040 36.16-17.12 51.36-29.76 7.36-6.080 9.28-16.8 4.48-25.12l-13.12-22.88c11.040-12.8 19.68-27.68 25.44-43.84h26.4c9.6 0 17.92-6.88 19.52-16.48 3.2-19.2 3.36-39.36 0-59.36-1.6-9.6-9.92-16.64-19.52-16.64h-26.4c-5.76-16.16-14.4-31.040-25.44-43.84l13.12-22.88c4.8-8.32 3.040-19.040-4.48-25.12-15.2-12.64-32.64-22.72-51.36-29.76-9.12-3.36-19.36 0.16-24.16 8.64l-13.12 22.88c-16.64-3.040-33.92-3.040-50.72 0zM802.56 168c61.6-47.36 131.84 22.88 84.48 84.48-61.6 47.36-131.84-22.88-84.48-84.48z" />
<glyph unicode="&#xe92a;" glyph-name="Centra" d="M1000 512h-60.728c-27.824 187.35-175.922 335.448-363.272 363.272v60.728c0 13.254-10.746 24-24 24h-80c-13.254 0-24-10.746-24-24v-60.728c-187.35-27.824-335.448-175.922-363.272-363.272h-60.728c-13.254 0-24-10.746-24-24v-80c0-13.254 10.746-24 24-24h60.728c27.824-187.35 175.922-335.448 363.272-363.272v-60.728c0-13.254 10.746-24 24-24h80c13.254 0 24 10.746 24 24v60.728c187.35 27.824 335.448 175.922 363.272 363.272h60.728c13.254 0 24 10.746 24 24v80c0 13.254-10.746 24-24 24zM576 150.732v81.268c0 13.254-10.746 24-24 24h-80c-13.254 0-24-10.746-24-24v-81.268c-116.348 24.804-208.434 116.782-233.268 233.268h81.268c13.254 0 24 10.746 24 24v80c0 13.254-10.746 24-24 24h-81.268c24.804 116.348 116.782 208.434 233.268 233.268v-81.268c0-13.254 10.746-24 24-24h80c13.254 0 24 10.746 24 24v81.268c116.348-24.804 208.434-116.782 233.268-233.268h-81.268c-13.254 0-24-10.746-24-24v-80c0-13.254 10.746-24 24-24h81.268c-24.804-116.348-116.782-208.434-233.268-233.268zM576 448c0-35.346-28.654-64-64-64s-64 28.654-64 64c0 35.346 28.654 64 64 64s64-28.654 64-64z" />
<glyph unicode="&#xe92b;" glyph-name="Mappa" d="M1021.129-0.837c-4.019-7.022-11.466-11.677-20.001-11.677-1.046 0-2.076 0.070-3.085 0.205l0.118-0.013h-970.407c-8.613 0-17.226 0-21.054 9.57s-0.957 14.355 3.828 22.011c115.798 176.090 232.553 353.136 348.351 531.14 4.713 8.095 13.349 13.449 23.235 13.449 0.579 0 1.154-0.018 1.725-0.055l-0.078 0.004h258.393c0.492 0.032 1.067 0.051 1.647 0.051 9.887 0 18.523-5.354 23.167-13.321l0.069-0.127 354.093-540.71zM530.183 22.131h319.641l-4.785 10.527-175.133 333.996c-26.796 51.679-53.593 103.357-81.346 155.036-0.957 2.871-4.785 7.656-6.699 7.656-17.226 0.957-34.452 0-51.679 0 0-5.742-0.957-10.527-0.957-16.269h-32.538c-0.957 5.742-0.957 10.527-1.914 16.269h-42.108c-0.588 0.075-1.269 0.118-1.96 0.118-6.966 0-12.91-4.378-15.229-10.534l-0.037-0.112q-128.239-244.994-256.479-490.946l-2.871-6.699h319.641v66.034h34.452zM52.636 21.174h74.647c0.669-0.138 1.438-0.218 2.225-0.218 5.401 0 9.931 3.729 11.157 8.752l0.016 0.079 257.436 490.946c0.963 2.92 2.262 5.457 3.888 7.745l-0.060-0.089c-2.030 0.979-4.414 1.55-6.931 1.55-6.785 0-12.599-4.153-15.040-10.055l-0.040-0.108c-13.398-21.054-27.753-42.108-42.108-63.163l-231.596-354.093-53.593-81.346zM972.321 21.174l-6.699 10.527-318.684 487.118c-2.563 6.498-8.788 11.013-16.067 11.013-2.497 0-4.869-0.531-7.011-1.487l0.109 0.044 4.785-8.613 148.336-285.189c36.366-67.948 71.776-136.852 108.142-205.757 1.914-2.871 6.699-7.656 9.57-7.656h77.518zM531.14 128.359h-36.366c0 2.871-0.957 4.785-0.957 7.656v84.217h37.323zM493.817 258.512v65.077c0 2.871 0.957 5.742 0.957 8.613h36.366v-73.69zM494.774 426.946h36.366v-55.219h-36.366v55.219zM495.731 501.593h36.366v-36.079h-36.366v36.079zM752.209 697.779c-3.311 34.382-12.845 65.86-27.477 94.285l0.681-1.455c-37.033 67.307-103.506 114.47-181.603 124.29l-1.186 0.122h-4.785c-6.934 0.722-14.981 1.134-23.125 1.134-75.537 0-142.798-35.431-186.072-90.58l-0.388-0.513-3.828-5.742c-56.464-77.518-59.335-160.778-16.269-247.865s115.798-189.488 185.66-275.619c13.398-16.269 29.667-16.269 43.065 0 70.819 86.131 137.809 176.090 185.66 277.533 18.183 39.237 34.452 79.432 29.667 124.411zM515.828 653.757c-0.287-0.006-0.626-0.009-0.966-0.009-28.541 0-51.679 23.137-51.679 51.679 0 0.34 0.003 0.679 0.010 1.017l-0.001-0.051c0.478 28.214 22.687 51.089 50.583 52.629l0.138 0.006c0.003 0 0.006 0 0.009 0 29.262 0 53.046-23.452 53.583-52.585l0.001-0.050c0.023-0.574 0.036-1.247 0.036-1.924 0-28.013-22.709-50.721-50.721-50.721-0.349 0-0.698 0.004-1.046 0.011l0.052-0.001z" />
<glyph unicode="&#xe92c;" glyph-name="Tracciato" d="M832 320h-192c-35.2 0-64 28.8-64 64s28.8 64 64 64h192s192 214 192 320-86 192-192 192-192-86-192-192c0-51 44.4-126.8 90.6-192h-90.6c-105.8 0-192-86.2-192-192s86.2-192 192-192h192c35.2 0 64-28.8 64-64s-28.8-64-64-64h-461c-32-49.6-67.6-95.4-94.6-128h555.6c105.8 0 192 86.2 192 192s-86.2 192-192 192zM832 832c35.4 0 64-28.6 64-64s-28.6-64-64-64-64 28.6-64 64 28.6 64 64 64zM192 448c-106 0-192-86-192-192s192-320 192-320 192 214 192 320-86 192-192 192zM192 192c-35.4 0-64 28.6-64 64s28.6 64 64 64 64-28.6 64-64-28.6-64-64-64z" />
<glyph unicode="&#xe92d;" glyph-name="RSS" d="M320.162 128.082c0-70.738-57.344-128.082-128.082-128.082s-128.080 57.344-128.080 128.082 57.344 128.082 128.082 128.082 128.080-57.346 128.080-128.082zM671.482 33.582c-16.708 309.2-264.37 557.174-573.9 573.9-18.27 0.988-33.582-13.692-33.582-31.988v-96.138c0-16.83 12.98-30.944 29.774-32.036 223.664-14.568 402.946-193.404 417.544-417.544 1.094-16.794 15.208-29.774 32.036-29.774h96.138c18.298-0.002 32.978 15.31 31.99 33.58zM959.98 33.006c-16.788 467.64-393.050 846.104-862.974 862.974-18.060 0.648-33.006-13.942-33.006-32.012v-96.136c0-17.25 13.67-31.29 30.906-31.998 382.358-15.678 689.254-322.632 704.93-704.93 0.706-17.236 14.746-30.906 31.998-30.906h96.136c18.068 0.002 32.658 14.948 32.010 33.008z" />
<glyph unicode="&#xe92e;" glyph-name="Satellite" d="M610.899 34.82c14.783-14.596 12.377-40.193-6.001-50.007-155.426-83.606-353.451-59.821-484.687 71.416-131.204 131.206-155.020 329.047-71.384 484.663 9.782 18.19 35.38 20.597 50.006 6.001l233.623-233.627 54.788 54.789c-1.375 5.219-3.188 10.001-3.188 15.627 0.001 35.35 28.658 64.007 64.008 64.007s64.008-28.657 64.008-64.008c0-35.351-28.657-64.008-64.008-64.008v0c-5.594 0-10.408 1.782-15.596 3.188l-54.819-54.82zM1023.952 353.865c0.032-0.537 0.050-1.166 0.050-1.798 0-17.734-14.333-32.12-32.046-32.206h-64.235c-16.918 0.052-30.737 13.25-31.781 29.913l-0.005 0.092c-15.002 259.037-223.028 469.067-481.874 483.069-16.761 0.92-30.004 14.736-30.004 31.645 0 0.061 0 0.121 0.001 0.181v-0.009 63.196c0.075 17.72 14.457 32.056 32.188 32.056 0.639 0 1.274-0.019 1.904-0.055l-0.087 0.004c326.448-17.19 588.887-279.634 605.89-606.086zM831.927 354.459c0.047-0.651 0.073-1.411 0.073-2.177 0-17.862-14.444-32.35-32.289-32.422h-64.421c-16.689 0.127-30.343 12.955-31.777 29.289l-0.009 0.122c-13.814 154.022-136.236 277.821-289.849 290.448-16.593 1.227-29.591 14.987-29.598 31.785v64.229c0 0.002 0 0.005 0 0.008 0 17.821 14.447 32.268 32.268 32.268 0.82 0 1.633-0.031 2.437-0.091l-0.107 0.006c220.247-17.002 396.457-193.215 413.271-413.465z" />
<glyph unicode="&#xe92f;" glyph-name="Tabella" d="M928 896h-832c-53.020 0-96-42.98-96-96v-704c0-53.020 42.98-96 96-96h832c53.020 0 96 42.98 96 96v704c0 53.020-42.98 96-96 96zM448 128h-320v192h320v-192zM448 448h-320v192h320v-192zM896 128h-320v192h320v-192zM896 448h-320v192h320v-192z" />
<glyph unicode="&#xe930;" glyph-name="Tacho" d="M300.856 416.401h203.032c11.835 0 21.429 9.594 21.429 21.429v0 177.85c0 0 0 0 0 0 0 11.859-9.579 21.481-21.423 21.55h-203.039c-11.85-0.069-21.429-9.691-21.429-21.55 0 0 0 0 0 0v0-177.85c0-11.835 9.594-21.429 21.429-21.429v0zM299.524 453.327v162.353c0.050 0.741 0.606 1.338 1.323 1.452l0.009 0.001h203.032c0.749-0.064 1.332-0.688 1.332-1.448 0-0.002 0-0.004 0-0.005v0-177.85c0-0.736-0.596-1.332-1.332-1.332v0h-203.032c-0.711 0.059-1.273 0.621-1.331 1.327v0.005zM583.552 561.805v-69.857h101.214l-56.055 69.857h-45.159zM728.229 501.028l-85.717 103.514h-95.281v-229.062h-84.022c-8.911 16.084-25.784 26.792-45.159 26.792s-36.248-10.708-45.025-26.529l-0.134-0.263h-94.192v-20.461h88.138c-0.121-1.453-0.242-2.906-0.242-4.358 0-28.417 23.037-51.454 51.454-51.454s51.454 23.037 51.454 51.454v0c0 1.453 0 2.906-0.121 4.358h117.074c-0.121-1.453-0.242-2.906-0.242-4.358 1.369-27.389 23.909-49.077 51.515-49.077s50.146 21.688 51.51 48.955l0.005 0.122c0 1.453-0.121 2.906-0.242 4.358h59.929v20.461h-20.703zM448.56 344.607c-2.924-14.394-15.476-25.075-30.523-25.075-17.184 0-31.115 13.931-31.115 31.115 0 15.047 10.681 27.599 24.875 30.489l0.2 0.034c1.909 0.42 4.102 0.66 6.35 0.66 17.050 0 30.873-13.822 30.873-30.873 0-2.249-0.24-4.442-0.697-6.554l0.037 0.203zM668.179 344.607c-2.924-14.394-15.476-25.075-30.523-25.075-17.184 0-31.115 13.931-31.115 31.115 0 15.047 10.681 27.599 24.875 30.489l0.2 0.034c1.909 0.42 4.102 0.66 6.35 0.66 17.050 0 30.873-13.822 30.873-30.873 0-2.249-0.24-4.442-0.697-6.554l0.037 0.203zM707.768 375.48h-24.94c-8.877 16.093-25.736 26.813-45.098 26.813s-36.221-10.72-44.964-26.548l-0.134-0.264h-24.94v208.602h65.256l74.821-90.438zM523.623 143.512c3.522-0.036 6.889-0.654 10.023-1.762l-0.217 0.067c4.119-1.489 7.435-2.918 10.657-4.509l-0.608 0.271 6.053 15.376c-7.558 3.801-16.456 6.069-25.874 6.174h-0.035c-8.475 0-15.86-1.816-22.035-5.569-6.332-3.735-11.322-9.153-14.434-15.642l-0.094-0.218c-3.39-6.901-4.964-15.013-4.964-24.214 0-14.649 3.39-25.909 10.17-33.657s16.707-11.744 29.541-11.744c0.222-0.003 0.484-0.004 0.747-0.004 8.503 0 16.61 1.692 24.004 4.758l-0.416-0.153v15.739q-13.318-4.722-22.519-4.722c-14.891 0-22.277 9.928-22.277 29.662q0 14.165 5.811 22.156c3.874 5.327 9.322 7.991 16.465 7.991zM388.389 158.282l-31.236-88.986h20.218l6.417 21.066h32.325l6.417-21.066h20.218l-31.357 88.986zM388.51 106.102c6.296 20.461 10.17 33.173 11.502 38.379 0.242-1.453 0.847-3.39 1.574-5.932s4.116-13.318 10.049-32.446zM645.66 123.172h-34.989v34.626h-18.766v-88.501h18.766v38.258h34.989v-38.258h18.766v88.501h-18.766v-34.626zM965.887 685.9c-4.964 9.322-10.17 18.524-15.497 27.483-34.384 55.086-76.758 102.908-128.575 142.256-73.126 55.45-155.331 89.228-246.496 100.366-19.269 2.575-41.546 4.045-64.166 4.045-37.867 0-74.771-4.119-110.29-11.935l3.386 0.625c-38.556-8.35-72.41-19.817-104.434-34.575l3.099 1.281c-69.251-31.357-129.059-75.547-178.576-133.297-52.544-61.14-88.986-130.633-108.599-209.086-8.695-33.050-14.275-71.274-15.478-110.599l-0.019-0.784c-0.121-5.085-0.242-10.17-0.242-15.134 0.096-35.186 3.706-69.472 10.496-102.598l-0.569 3.321c1.816-8.354 3.753-16.707 5.932-25.061l14.407-47.217c2.542-5.932 4.358-12.228 6.78-18.16 15.61-38.426 33.812-71.507 55.314-102.101l-1.075 1.614c12.631-18.067 25.072-33.775 38.357-48.715l-0.463 0.53 3.753-4.237h0.121c10.049-11.017 20.461-21.55 31.357-31.599 90.763-84.404 212.844-136.203 347.024-136.203 0.241 0 0.482 0 0.723 0.001h-0.038c282.938 0 512.121 229.304 512.121 512.121 0 0.214 0.001 0.468 0.001 0.722 0 86.635-21.594 168.226-59.693 239.685l1.338-2.749zM341.414 56.221c0-8.024-6.505-14.528-14.528-14.528v0h-82.69c-8.024 0-14.528 6.505-14.528 14.528v0 116.226c0 8.024 6.505 14.528 14.528 14.528v0h82.69c8.024 0 14.528-6.505 14.528-14.528v0zM455.824 56.221c0-8.024-6.505-14.528-14.528-14.528v0h-82.69c-8.024 0-14.528 6.505-14.528 14.528v0 116.226c0 8.024 6.505 14.528 14.528 14.528v0h82.69c8.024 0 14.528-6.505 14.528-14.528v0zM570.234 56.221c0-8.024-6.505-14.528-14.528-14.528v0h-82.69c-8.024 0-14.528 6.505-14.528 14.528v0 116.226c0 8.024 6.505 14.528 14.528 14.528v0h82.69c8.024 0 14.528-6.505 14.528-14.528v0zM684.16 56.221c0-8.024-6.505-14.528-14.528-14.528v0h-82.69c-8.024 0-14.528 6.505-14.528 14.528v0 116.226c0 8.024 6.505 14.528 14.528 14.528v0h82.69c8.024 0 14.528-6.505 14.528-14.528v0zM797.965 56.221c0-8.024-6.505-14.528-14.528-14.528v0h-82.69c-8.024 0-14.528 6.505-14.528 14.528v0 116.226c0 8.024 6.505 14.528 14.528 14.528v0h82.69c8.024 0 14.528-6.505 14.528-14.528v0zM860.194 136.611c-21.429 21.429-41.769 42.011-62.35 62.108-0.959 1.181-2.078 2.185-3.334 2.993l-0.056 0.034c-1.804 1.353-3.891 2.462-6.139 3.223l-0.157 0.046c-34.384 14.649-144.919 25.424-275.916 25.424s-244.317-11.017-277.127-25.909c-3.705-1.556-6.851-3.771-9.43-6.523l-0.014-0.015c-19.855-20.582-40.195-40.921-62.229-63.319-1.375 2.809-2.784 5.188-4.357 7.445l0.12-0.181c-13.197 17.797-27.24 34.989-39.59 53.27-24.456 36.442-42.132 76.152-54.723 118.042l-10.049 38.863c-3.511 17.555-5.448 35.352-7.748 53.028-0.726 5.327-0.847 10.654-1.332 16.586h8.717c25.788 0 51.454-0.121 77.121 0.121 21.671 0.121 34.141 19.008 25.182 37.773-5.327 11.502-15.618 14.286-26.998 14.286h-77.242c-4.601 0-7.022 0.363-6.659 6.175 3.397 47.367 13.234 91.395 28.674 132.689l-1.071-3.267c18.909 50.274 44.108 93.706 75.263 132.109l-0.684-0.871c5.085 6.296 10.654 12.228 16.465 19.008 21.308-21.429 41.406-42.374 62.108-62.593 11.017-10.654 27.24-9.928 36.926 0.363s9.080 26.393-1.453 37.047c-7.748 7.991-15.497 15.739-23.366 23.487l-38.742 37.531c82.811 72.399 177.245 112.11 286.086 118.89v-44.069c0-14.528-0.121-29.057 0.121-43.585s11.623-26.756 25.788-26.756 25.788 11.623 25.909 26.514c0.242 18.645 0.121 37.41 0.121 56.055v31.72c67.763-3.539 130.619-21.308 186.691-50.353l-2.546 1.199c38.505-19.446 71.666-42.438 101.21-69.332l-0.36 0.323c-1.937-2.179-3.269-3.874-4.722-5.327-18.887-18.887-37.895-37.652-56.781-56.66-9.443-9.564-10.412-23.245-2.664-33.899s20.824-14.286 32.204-7.627c7.264 4.116 13.075 10.896 19.129 16.829 16.465 16.223 32.81 32.81 49.88 49.759 1.332 1.332 43.343-56.176 46.733-61.624 7.264-11.38 13.923-23.124 20.218-35.11 16.974-31.293 30.878-67.556 39.843-105.722l0.594-2.998c2.664-11.986 4.601-23.972 6.417-36.079s4.358-25.182 4.358-37.652c0.484-5.811-1.937-6.175-6.659-6.175h-73.973c-0.133 0.001-0.291 0.001-0.448 0.001-3.944 0-7.816-0.309-11.593-0.903l0.418 0.054c-11.946-1.475-21.143-11.425-21.429-23.58l-0.001-0.029c-0.726-15.86 10.775-27.362 27.967-27.483 25.667-0.242 51.454-0.121 77.121-0.121h8.959c-7.264-109.325-46.854-203.638-118.405-285.238zM742.273 159.251c-13.681 0-24.093-3.874-31.357-11.623s-11.017-19.008-11.017-33.778 3.632-26.030 10.896-33.899 17.676-11.865 31.357-11.865 23.972 3.995 31.236 11.865 10.896 19.129 10.896 33.778-3.632 25.909-10.896 33.778-17.555 11.744-31.115 11.744zM742.152 83.825c-7.506 0-13.197 2.542-16.95 7.506s-5.569 12.47-5.569 22.398 1.937 17.313 5.69 22.398 9.443 7.506 16.95 7.506c14.891 0 22.277-9.928 22.277-29.904s-7.506-29.904-22.398-29.904zM252.065 142.18h23.972v-72.883h18.887v72.883h23.972v15.618h-66.83v-15.618z" />
<glyph unicode="&#xe931;" glyph-name="Desktop" horiz-adv-x="1152" d="M1056 960h-960c-53 0-96-43-96-96v-640c0-53 43-96 96-96h384l-32-96h-144c-26.6 0-48-21.4-48-48s21.4-48 48-48h544c26.6 0 48 21.4 48 48s-21.4 48-48 48h-144l-32 96h384c53 0 96 43 96 96v640c0 53-43 96-96 96zM1024 256h-896v576h896v-576z" />
<glyph unicode="&#xe932;" glyph-name="Shapes" horiz-adv-x="1040" d="M255.998 448c-141.385 0-255.999-114.615-255.999-255.999s114.615-255.999 255.999-255.999c141.385 0 255.999 114.615 255.999 255.999v0c0 141.385-114.615 255.999-255.999 255.999v0zM1013.999 557.719l-213.86 365.7c-13.21 22.051-36.98 36.582-64.14 36.582s-50.929-14.531-63.952-36.243l-0.188-0.338-213.86-365.7c-28.48-48.76 7.16-109.719 64.18-109.719h427.64c57.020 0 92.66 60.959 64.18 109.719zM959.999 384h-320c-35.345 0-64-28.654-64-64v0-320c0-35.345 28.654-64 64-64v0h320c35.345 0 64 28.654 64 64v0 320c0 35.345-28.654 64-64 64v0z" />
<glyph unicode="&#xe933;" glyph-name="Autoarticolato" horiz-adv-x="1536" d="M1512.958 324.268v121.173c0 14.508-3.413 28.16-11.093 40.107l-98.133 168.959c-3.413 5.973-10.239 10.239-17.067 10.239h-200.533c-11.093 0-20.48-9.386-20.48-20.48v-332.8h-45.227v398.508c0 18.774-15.36 33.279-33.279 33.279h-1053.867c-18.774 0-33.279-15.36-33.279-33.279v-453.12c0-3.413 3.413-6.827 6.827-6.827 0 0 28.16 0 74.24 0 0-3.413-0.853-6.827-0.853-10.239 0-47.787 39.253-87.040 87.040-87.040s87.040 39.253 87.040 87.040c0 3.413 0 6.827-0.853 10.239 10.239 0 21.333 0 32.426 0 0-3.413-0.853-6.827-0.853-10.239 0-47.787 39.253-87.040 87.040-87.040s87.040 39.253 87.040 87.040c0 3.413 0 6.827-0.853 10.239 105.814 0 212.48 0 302.079 0 0-3.413-0.853-6.827-0.853-10.239 0-47.787 39.253-87.040 87.040-87.040s87.040 39.253 87.040 87.040c0 3.413 0 6.827-0.853 10.239 23.040 0 35.841 0 36.694 0h293.547c0-3.413-0.853-6.827-0.853-10.239 0-47.787 39.253-87.040 87.040-87.040s87.040 39.253 87.040 87.040c0 3.413 0 6.827-0.853 10.239h90.453c5.12 0 10.239 4.266 10.239 10.239v40.96c0 12.801-10.239 23.040-23.040 23.040zM167.252 200.535c-22.187 0-40.107 17.92-40.107 40.107s17.92 40.107 40.107 40.107c22.187 0 40.107-17.92 40.107-40.107s-17.92-40.107-40.107-40.107zM372.052 200.535c-22.187 0-40.107 17.92-40.107 40.107s17.92 40.107 40.107 40.107c22.187 0 40.107-17.92 40.107-40.107s-17.92-40.107-40.107-40.107zM846.505 200.535c-22.187 0-40.107 17.92-40.107 40.107s17.92 40.107 40.107 40.107c22.187 0 40.107-17.92 40.107-40.107s-17.92-40.107-40.107-40.107zM1349.119 200.535c-22.187 0-40.107 17.92-40.107 40.107s17.92 40.107 40.107 40.107c22.187 0 40.107-17.92 40.107-40.107s-17.92-40.107-40.107-40.107zM1434.452 480.428c0-1.707-1.707-3.413-3.413-3.413h-164.693c-1.707 0-3.413 1.707-3.413 3.413v136.533c0 1.707 1.707 3.413 3.413 3.413h106.667c0.853 0 2.56-0.853 2.56-1.707l58.027-100.692c0-0.853 0.853-0.853 0.853-1.707v-35.841z" />
<glyph unicode="&#xe934;" glyph-name="Autocarro-3-assi" horiz-adv-x="1360" d="M1334.407 302.149v137.537c0 15.869-4.534 31.74-12.091 45.342l-111.088 191.948c-3.778 6.801-11.335 11.335-19.648 11.335h-227.466c-1.511 0-3.023 0-4.534-0.755v51.388c0 21.16-16.626 37.785-37.785 37.785h-884.168c-21.16 0-37.785-16.626-37.785-37.785v-513.875c0-4.534 3.023-7.557 7.557-7.557 0 0 58.189 0 141.315 0 0 0 0 0 0 0 0-54.411 43.831-98.241 98.241-98.241s98.997 43.831 98.997 98.241c0 0 0 0 0 0 12.091 0 23.426 0 35.518 0 0 0 0 0 0 0 0-54.411 43.831-98.241 98.241-98.241s98.997 43.831 98.997 98.241c0 0 0 0 0 0 81.615 0 138.292 0 139.049 0h331.752c0 0 0 0 0 0 0-54.411 43.831-98.241 98.241-98.241s98.997 43.831 98.997 98.241c0 0 0 0 0 0h102.020c6.046 0 11.335 5.289 11.335 11.335v46.854c0.755 15.114-11.335 26.449-25.694 26.449zM247.711 172.924c-24.938 0-45.342 20.404-45.342 45.342s20.404 45.342 45.342 45.342c24.938 0 45.342-20.404 45.342-45.342 0.755-24.938-19.648-45.342-45.342-45.342zM480.467 172.924c-24.938 0-45.342 20.404-45.342 45.342s20.404 45.342 45.342 45.342c24.938 0 45.342-20.404 45.342-45.342s-20.404-45.342-45.342-45.342zM1148.504 172.924c-24.938 0-45.342 20.404-45.342 45.342s20.404 45.342 45.342 45.342c24.938 0 45.342-20.404 45.342-45.342 0.755-24.938-19.648-45.342-45.342-45.342zM1245.99 478.983c0-2.268-1.511-3.778-3.778-3.778h-186.658c-2.268 0-3.778 1.511-3.778 3.778v154.918c0 2.268 1.511 3.778 3.778 3.778h120.912c1.511 0 2.268-0.755 3.023-2.268l65.746-114.111c0-0.755 0.755-1.511 0.755-2.268v-40.052z" />
<glyph unicode="&#xe935;" glyph-name="Autogru" horiz-adv-x="1408" d="M1382.020 284.926v142.51c0 16.443-4.698 32.887-12.528 46.981l-115.103 200.451c-3.915 7.048-11.746 11.746-20.359 11.746h-236.471c-13.311 0-23.49-10.962-23.49-23.49v-185.575l-59.509 290.499c-3.915 18.010-20.359 30.537-39.15 28.972l-268.575-28.188c-1.565 0.784-2.349 1.565-3.133 2.349-32.103 36.020-79.867 41.5-117.452 7.048-50.896-45.414-35.236-91.613-28.188-151.904 3.133-17.226 1.565-31.321 14.095-39.934 35.236-24.274 35.236 36.801 42.283 43.066l90.047 61.075c4.698 3.133 15.661 6.264 29.755 8.613l216.112 22.708 79.085-385.244h-165.999l-14.095 83.783 139.377 25.839-28.188 153.472-860.534-160.518 28.188-153.472 60.292 10.962c0-0.784 0-1.565 0-1.565v-90.047c0-4.698 3.915-7.829 7.829-7.829 0 0 20.359 0 52.462 0 0 0 0 0 0 0 0-56.376 46.198-102.575 102.575-102.575s102.575 46.198 102.575 102.575c0 0 0 0 0 0 178.527 0 384.461 0 386.81 0h344.526c0 0 0 0 0 0 0-56.376 46.198-102.575 102.575-102.575s102.575 46.198 102.575 102.575c0 0 0 0 0 0h105.707c6.264 0 11.746 5.48 11.746 11.746v48.547c1.565 14.877-10.178 27.405-25.839 27.405zM252.128 150.247c-13.311 0-25.057 5.48-33.67 14.095 0 0 0 0 0 0-1.565 1.565-2.349 3.133-3.915 4.698-6.264 7.829-9.397 18.010-9.397 28.188 0 0 0 0 0 0v0 0c0 25.839 21.141 46.981 46.981 46.981s46.981-21.141 46.981-46.981v0c0 0 0 0 0 0 0-25.839-21.141-46.981-46.981-46.981zM293.629 335.040l384.461 70.472 11.746-70.472h-396.206zM1236.38 197.228v0 0c0-2.349 0-3.915-0.784-6.264 0-2.349-0.784-3.915-1.565-6.264-0.784-3.915-2.349-7.048-3.915-10.178-0.784-1.565-1.565-2.349-2.349-3.915-8.613-12.528-22.708-21.141-39.15-21.141-13.311 0-25.057 5.48-33.67 14.095 0 0 0 0 0 0-1.565 1.565-2.349 3.133-3.915 4.698-6.264 7.829-9.397 18.010-9.397 28.188 0 0 0 0 0 0v0 0c0 25.839 21.141 46.981 46.981 46.981 26.623 1.565 47.763-19.575 47.763-46.198v0c0 0 0 0 0 0zM1289.625 468.934c0-2.349-1.565-3.915-3.915-3.915h-194.188c-2.349 0-3.915 1.565-3.915 3.915v160.518c0 2.349 1.565 3.915 3.915 3.915h126.065c1.565 0 2.349-0.784 3.133-2.349l68.905-119.019c0-0.784 0.784-1.565 0.784-2.349v-40.717z" />
<glyph unicode="&#xe936;" glyph-name="Dumper" horiz-adv-x="1296" d="M980.64 447.64c-99.36 0-180.72-80.64-180.72-180.72 0-99.36 80.64-180.72 180.72-180.72s180.72 80.64 180.72 180.72c0 100.080-80.64 180.72-180.72 180.72zM980.64 189.88c-43.2 0-77.76 34.56-77.76 77.76s34.56 77.76 77.76 77.76 77.76-34.56 77.76-77.76c0-43.2-34.56-77.76-77.76-77.76zM305.28 476.44l-146.88 32.4h-10.8l-12.96-113.040h24.48c34.56 44.64 87.12 74.88 146.16 80.64zM324.72 447.64c-99.36 0-180.72-80.64-180.72-180.72 0-99.36 80.64-180.72 180.72-180.72s180.72 80.64 180.72 180.72c0 100.080-80.64 180.72-180.72 180.72zM324.72 189.88c-43.2 0-77.76 34.56-77.76 77.76s34.56 77.76 77.76 77.76 77.76-34.56 77.76-77.76c0-43.2-34.56-77.76-77.76-77.76zM1204.56 584.44l-28.080 154.080h-256.32l-213.84-347.76-15.12 3.6-230.4 51.12-30.24 3.6c42.48-25.2 75.6-64.8 92.16-111.6 0-0.72 0-0.72 0.72-1.44 1.44-3.6 2.16-7.2 3.6-10.8 0-0.72 0.72-1.44 0.72-2.16 2.16-7.92 4.32-16.56 5.040-25.2 0-1.44 0-2.16 0.72-3.6 0.72-2.88 0.72-6.48 0.72-10.080 0-1.44 0-2.16 0-3.6 0-4.32 0.72-8.64 0.72-12.96s0-8.64-0.72-12.96c0-1.44 0-2.16 0-3.6 0-3.6-0.72-7.92-1.44-11.52 0 0 0-0.72 0-0.72h239.76c-1.44 9.36-2.16 19.44-2.16 28.8 0 115.92 94.32 210.24 210.24 210.24s210.24-94.32 210.24-210.24c0-9.36-0.72-19.44-2.16-28.8l107.28 79.92v240.48l-91.44 25.2zM1164.96 584.44l-164.88 1.44c-5.040 0-8.64 3.6-8.64 8.64v100.8c0 5.040 3.6 8.64 8.64 8.64h145.44c4.32 0 7.92-2.88 8.64-7.2l18.72-102.24c0.72-5.040-2.88-10.080-7.92-10.080zM695.52 415.24v0 0l222.48 360.72 293.040-0.72v34.56h-338.4l-43.92-53.28h-762.48l-66.24-187.92 596.88-131.76z" />
<glyph unicode="&#xe937;" glyph-name="Escavatore-gommato" horiz-adv-x="1248" d="M1221.461 623.007c-16.727 84.306-86.313 124.451-166.604 108.393-49.513-9.367-204.742 173.295-262.953 218.124-41.484 30.778-78.953-12.044-119.767-42.822-143.855-108.393-136.495-100.364-144.524-246.226h-141.847c-22.749 0-40.815-18.735-40.815-40.815v-187.346h-5.353c-34.124-2.676-68.247-10.036-101.033-20.073v81.629c0 11.375-8.698 20.073-20.073 20.073h-40.146c-11.375 0-20.073-8.698-20.073-20.073s8.698-20.073 20.073-20.073h20.073v-76.276c-40.815-17.396-78.953-40.146-113.746-68.247-4.015-3.345-6.691-8.029-7.36-13.382l-5.353-48.844c-31.447-35.462-50.182-81.629-50.182-132.48 0-109.731 88.989-198.72 198.72-198.72 102.371 0 187.346 77.615 198.051 177.978h153.222c10.705-99.695 95.011-177.978 198.051-177.978 109.731 0 198.72 88.989 198.72 198.72 0 103.040-78.284 188.015-178.647 198.051-0.669 1.338-1.338 2.676-1.338 3.345l-0.669 1.338c0.669 8.029-0.669 16.058-4.684 23.418l-149.207 278.342c-0.669 2.007-2.007 3.345-3.345 4.684 6.022 93.004-3.345 94.342 123.782 194.706 29.44-23.418 204.073-179.986 217.455-216.786l61.556-172.626c3.345-16.058-57.542-98.356 14.72-101.033 25.425-1.338 37.469 20.073 58.88 40.815 70.924 74.269 137.833 121.775 114.415 234.182zM220.5 68.33c-28.771 0-53.527 18.735-62.895 44.829-0.669 1.338-0.669 2.676-1.338 4.015 0 0.669 0 0.669-0.669 1.338 0 1.338-0.669 2.676-0.669 4.015 0 0.669 0 2.007-0.669 2.676 0 0.669 0 2.007-0.669 2.676 0 2.007 0 4.015 0 6.022 0 2.676 0 5.353 0.669 8.029 0 0.669 0 1.338 0.669 2.007 0 2.007 0.669 4.015 1.338 5.353 0 0.669 0.669 1.338 0.669 2.007 0.669 2.007 1.338 4.015 2.007 6.022 0 0.669 0 0.669 0.669 1.338 0.669 2.676 2.007 4.684 3.345 7.36v0c11.375 20.073 32.785 34.124 57.542 34.124 36.131 0 66.24-29.44 66.24-66.24s-29.44-65.571-66.24-65.571zM769.824 68.33c-36.131 0-66.24 29.44-66.24 66.24s29.44 66.24 66.24 66.24c36.131 0 66.24-29.44 66.24-66.24s-30.109-66.24-66.24-66.24zM678.828 382.134h-251.578v196.044h146.531l105.047-196.044z" />
<glyph unicode="&#xe938;" glyph-name="Fresatrice" horiz-adv-x="1536" d="M1532.835 650.286c-10.243 29.868-41.826 45.233-71.694 34.989l-133.14-46.094c-50.36-17.068-98.149-38.401-145.091-64.015 0 0-0.854 0-0.854 0l-234.703-121.194c-81.938 65.712-262.018 122.048-262.018 122.048h-46.941l-104.974 195.445c-6.825 12.8-20.478 21.333-34.989 21.333h-207.392c-22.19 0-40.112-17.922-40.112-40.112v-176.669h-153.63c-53.767 0-97.296-43.522-97.296-97.296v-137.405c0-41.826 26.456-76.816 63.161-91.326-28.165-10.243-48.645-37.561-48.645-69.978 0-40.967 33.292-74.246 74.246-74.246h216.78c40.967 0 74.246 33.292 74.246 74.246 0 27.311-14.511 51.214-35.844 64.015h72.551v-28.165c0-62.301 50.36-112.66 112.66-112.66h345.652c62.301 0 112.66 50.36 112.66 112.66v96.442l188.622 127.166c58.034 39.256 121.194 70.834 187.763 93.028l133.14 46.094c30.723 10.243 46.094 42.669 35.844 71.694zM331.139 712.587h142.529l102.416-190.325h-244.951v190.325z" />
<glyph unicode="&#xe939;" glyph-name="Furgone-attrezzato" horiz-adv-x="1328" d="M1324.781 450.132c-5.904 29.522-11.071 34.688-26.569 47.973l-56.829 35.426c-6.642 4.428-11.809 8.856-17.713 13.285 0 0-110.706 155.726-145.394 205.175-16.237 22.879-28.784 36.164-62.733 36.164-338.022 0-626.596 3.69-964.618 0-9.595 0-14.761-3.69-16.975-11.809-11.809-47.235-16.975-245.767-17.713-357.211 0-19.189 0-37.64 0-56.829 0-15.499 0-17.713-11.809-28.784-2.952-2.214-4.428-6.642-4.428-12.547v-71.59c0.738-22.141 13.285-29.522 30.998-30.998h112.182c11.809-64.209 67.9-112.182 135.061-112.182s123.253 48.711 135.061 112.92l485.63 0.738c11.809-64.209 67.9-113.658 135.061-113.658 67.9 0 123.991 48.711 135.061 113.658h76.756c21.403 1.476 51.663 11.071 69.376 24.355 10.333 8.118 11.071 14.761 12.547 31.736 0.738 0 0 157.202-2.952 174.177zM309.238 210.269c0 0 0 0 0 0-1.476-1.476-2.952-2.214-4.428-3.69 0 0-0.738-0.738-0.738-0.738-1.476-0.738-2.952-2.214-4.428-2.952 0 0 0 0 0 0-1.476-0.738-2.952-1.476-5.166-2.214 0 0-0.738 0-0.738-0.738-1.476-0.738-2.214-0.738-3.69-1.476-0.738 0-0.738 0-1.476-0.738-1.476 0-2.214-0.738-3.69-0.738-0.738 0-0.738 0-1.476 0-1.476 0-3.69 0-5.166 0s-3.69 0-5.166 0c-0.738 0-0.738 0-1.476 0-1.476 0-2.214 0.738-3.69 0.738-0.738 0-0.738 0-1.476 0.738-1.476 0-2.214 0.738-3.69 1.476-0.738 0-0.738 0-1.476 0.738-1.476 0.738-2.952 1.476-4.428 2.214 0 0 0 0 0 0-1.476 0.738-2.952 1.476-4.428 2.952 0 0-0.738 0.738-0.738 0.738-1.476 0.738-2.214 1.476-3.69 2.952 0 0-0.738 0.738-0.738 0.738-8.856 8.118-14.761 19.927-14.761 33.212 0 25.093 20.665 45.758 45.758 45.758s45.758-20.665 45.758-45.758c0-12.547-5.904-24.355-14.761-33.212zM1061.301 207.317c0 0 0 0 0 0-2.214-1.476-2.952-2.214-4.428-2.952 0 0 0 0 0 0-1.476-0.738-2.952-1.476-5.166-2.214 0 0 0 0-0.738 0-1.476-0.738-2.952-1.476-4.428-1.476-0.738 0-0.738 0-1.476-0.738-1.476 0-2.952-0.738-3.69-0.738s-0.738 0-1.476 0c-1.476 0-3.69 0-5.166 0-2.214 0-3.69 0-5.166 0-0.738 0-0.738 0-1.476 0-1.476 0-2.952 0.738-3.69 0.738s-0.738 0-1.476 0.738c-1.476 0.738-2.952 0.738-4.428 1.476 0 0 0 0-0.738 0-1.476 0.738-3.69 1.476-5.166 2.214 0 0 0 0 0 0-1.476 0.738-2.952 1.476-4.428 2.952 0 0 0 0-0.738 0.738-11.071 8.118-18.451 21.403-18.451 36.164 0 25.093 20.665 45.758 45.758 45.758s45.758-20.665 45.758-45.758c-0.738-15.499-8.118-28.784-19.189-36.902zM1157.246 512.866h-264.956c-11.071 0-22.141 8.856-22.879 20.665v148.346c0 5.904 3.69 10.333 8.856 10.333l164.583-2.214c37.64 0 37.64-7.38 51.663-28.784l77.494-111.444c17.713-22.141 8.856-36.902-14.761-36.902z" />
<glyph unicode="&#xe93a;" glyph-name="Impianto-frantumazione" horiz-adv-x="1536" d="M1532.964 653.658c-9.774 27.694-39.094 42.354-66.788 32.579l-123.801-42.354c-46.426-16.291-91.222-35.838-134.39-59.459 0 0-0.815 0-0.815 0l-199.548-102.625v130.317c0 26.878-21.993 48.871-48.871 48.871h-77.377v65.159h17.921c13.031 0 22.807 10.589 22.807 22.807s-10.589 22.807-22.807 22.807h-41.54c-13.031 0-22.807-10.589-22.807-22.807v-88.778h-149.051c-26.878 0-48.871-21.993-48.871-48.871v-27.694h-98.553l8.143 52.126c2.441 17.105-2.441 35.022-13.031 48.055-11.404 13.031-27.694 21.175-44.797 21.175h-429.234c-19.548 0-37.466-9.774-48.871-25.248-11.404-16.291-13.844-36.653-6.516-54.572l113.213-298.916c4.074-11.404 12.218-21.175 21.993-27.694 4.074-3.261 8.143-6.516 12.218-8.956-5.701-13.844-8.143-28.509-8.143-43.981 0-66.788 54.572-121.359 121.359-121.359h583.986c66.788 0 121.359 54.572 121.359 121.359 0 12.218-1.627 23.621-4.888 35.022 7.331 1.627 14.659 4.888 21.175 9.774l218.28 168.597c53.759 35.838 112.398 65.159 173.483 85.521l123.801 42.354c26.063 8.956 40.725 39.094 30.951 66.788zM847.986 195.105h-583.986c-27.694 0-49.682 21.993-49.682 49.682 0 11.404 4.074 21.993 10.589 30.951v0c3.261 4.074 7.331 8.143 12.218 10.589 0 0 0.815 0 0.815 0 1.627 0.815 2.441 1.627 4.074 2.441 0.815 0 0.815 0.815 1.627 0.815 0.815 0.815 2.441 0.815 3.261 1.627 0.815 0 0.815 0 1.627 0.815 0.815 0 2.441 0.815 3.261 0.815s0.815 0 1.627 0.815c1.627 0 2.441 0.815 4.074 0.815 0.815 0 0.815 0 1.627 0 1.627 0 3.261 0 5.701 0h583.986c27.694 0 49.682-21.993 49.682-49.682 0-26.878-22.807-49.682-50.497-49.682zM270.513 278.18c-18.733 0-33.393-14.659-33.393-33.393s14.659-33.393 33.393-33.393c18.733 0 33.393 14.659 33.393 33.393-0.815 18.733-15.476 33.393-33.393 33.393zM385.356 278.18c-18.733 0-33.393-14.659-33.393-33.393s14.659-33.393 33.393-33.393 33.393 14.659 33.393 33.393c-0.815 18.733-15.476 33.393-33.393 33.393zM500.197 278.18c-18.733 0-33.393-14.659-33.393-33.393s14.659-33.393 33.393-33.393c18.733 0 33.393 14.659 33.393 33.393-0.815 18.733-15.476 33.393-33.393 33.393zM615.043 278.18c-18.733 0-33.393-14.659-33.393-33.393s14.659-33.393 33.393-33.393c18.733 0 33.393 14.659 33.393 33.393s-15.476 33.393-33.393 33.393zM729.885 278.18c-18.733 0-33.393-14.659-33.393-33.393s14.659-33.393 33.393-33.393c18.733 0 33.393 14.659 33.393 33.393s-15.476 33.393-33.393 33.393zM844.724 278.18c-18.733 0-33.393-14.659-33.393-33.393s14.659-33.393 33.393-33.393 33.393 14.659 33.393 33.393c0 18.733-15.476 33.393-33.393 33.393z" />
<glyph unicode="&#xe93b;" glyph-name="Pala-cingolata" horiz-adv-x="1424" d="M1417.178 354.556l-246.284 319.931c-11.086 14.254-31.677 18.214-47.514 7.919l-175.012-115.619c-33.26-22.174-50.682-60.186-45.931-99.781l1.584-13.463c-6.335 2.376-11.879 3.96-18.214 6.335-7.919 20.59-15.046 40.388-15.838 44.347l-8.711 26.133c-3.168 9.503-11.879 15.838-21.382 15.838h-191.642l-163.926 305.677c-7.919 15.046-23.758 24.549-40.388 24.549h-238.365c-25.342 0-45.931-20.59-45.931-45.931v-280.336c-28.509-15.046-55.433-33.26-79.983-53.849-4.751-3.96-7.128-8.711-7.919-15.046l-11.879-107.7c-37.219-37.219-60.186-89.486-60.186-146.503 0-114.826 93.445-207.48 207.48-207.48h613.73c114.826 0 207.48 93.445 207.48 207.48 0 3.168 0 7.128 0 10.295 19.005-7.128 39.595-10.295 59.393-10.295 14.254 0 28.509 1.584 42.763 5.544l267.666 66.521c11.879 3.168 20.59 11.086 24.549 22.174 3.168 11.086 1.584 23.758-5.544 33.26zM251.486 783.771h164.717l117.995-220.151h-282.712v220.151zM820.077 141.532h-613.73c-47.514 0-85.526 38.804-85.526 85.526 0 9.503 1.584 18.214 3.96 26.925v0c3.168 10.295 8.711 19.798 15.838 28.509 0 0 0 0 0 0 1.584 2.376 3.96 3.96 5.544 5.544 0 0 0 0 0 0 1.584 1.584 3.96 3.96 5.544 5.544 0 0 0 0 0 0 2.376 1.584 3.96 3.168 6.335 4.751 0 0 0 0 0 0 2.376 1.584 4.751 3.168 7.128 3.96 11.879 6.335 25.342 10.295 40.388 10.295h613.73c47.514 0 85.526-38.804 85.526-85.526 1.584-46.723-37.219-85.526-84.735-85.526zM216.642 284.075c-31.677 0-57.017-25.342-57.017-57.017s25.342-57.017 57.017-57.017 57.017 25.342 57.017 57.017c0 31.677-25.342 57.017-57.017 57.017zM413.827 284.075c-31.677 0-57.017-25.342-57.017-57.017s25.342-57.017 57.017-57.017 57.017 25.342 57.017 57.017c0 31.677-25.342 57.017-57.017 57.017zM611.013 284.075c-31.677 0-57.017-25.342-57.017-57.017s25.342-57.017 57.017-57.017c31.677 0 57.017 25.342 57.017 57.017s-25.342 57.017-57.017 57.017zM808.991 284.075c-31.677 0-57.017-25.342-57.017-57.017s25.342-57.017 57.017-57.017 57.017 25.342 57.017 57.017c0 31.677-26.133 57.017-57.017 57.017z" />
<glyph unicode="&#xe93c;" glyph-name="Pulmino" horiz-adv-x="1424" d="M1346.648 576.68v0l-125.118 187.677c-19.006 26.132-49.889 41.179-81.564 41.179h-399.902c-13.462 0-23.756-11.086-23.756-23.756v-280.328h-716.655v-182.925c0-26.925 21.38-48.305 48.305-48.305h48.305c0-99.777 80.772-179.758 179.758-179.758 99.777 0 179.758 80.772 179.758 179.758h462.461c0 0 0 0 0 0h10.295c0-99.777 80.772-179.758 179.758-179.758 99.777 0 179.758 80.772 179.758 179.758h97.402c21.38 0 38.803 17.421 38.803 38.803v190.052c0.792 42.762-34.051 77.604-77.604 77.604zM325.909 236.169c-0.792-1.584-2.376-3.167-3.167-4.752-11.086-13.462-27.716-22.173-45.929-22.173s-34.843 8.711-45.929 22.173c-1.584 1.584-2.376 3.167-3.167 4.752-6.335 9.502-10.295 21.38-10.295 33.259 0 5.543 0.792 11.086 2.376 16.63 0 0.792 0.792 1.584 0.792 3.167 1.584 3.959 3.167 7.919 5.543 11.086 10.295 17.421 29.299 29.299 51.472 29.299s41.179-11.878 51.472-29.299c2.376-3.167 3.959-7.126 5.543-11.086 0-0.792 0.792-1.584 0.792-3.167 1.584-5.543 2.376-10.295 2.376-16.63-1.584-11.878-5.543-23.756-11.878-33.259zM1155.012 231.418c-11.086-13.462-27.716-22.173-45.929-22.173s-34.843 8.711-45.929 22.173c-2.376 3.167-4.752 6.335-6.335 9.502-4.752 8.711-7.126 18.213-7.126 28.508 0 33.259 26.925 60.183 60.183 60.183s60.183-26.925 60.183-60.183c-0.792-14.254-6.335-27.716-15.046-38.010zM1245.288 576.68h-275.576v157.585h170.255c9.502 0 19.006-4.752 24.549-12.67l87.108-131.453c3.959-5.543 0-13.462-6.335-13.462z" />
<glyph unicode="&#xe93d;" glyph-name="Ruspa" horiz-adv-x="1280" d="M1252.789 184.546l-142.926 105.239-78.218 252.432c-9.955 31.287-41.242 50.486-73.952 45.509-32.71-5.689-56.175-34.132-54.753-66.841l8.533-257.41-52.62 15.644v148.615c0 32.71-24.177 60.442-56.175 64.708l-175.636 24.888c0.711 12.088-1.422 24.888-7.111 36.265l-152.882 286.564c-11.377 21.332-33.421 34.843-57.597 34.843h-219.012c-36.265 0-65.419-29.154-65.419-65.419v-221.145c-17.066 1.422-33.421-4.266-46.22-14.933-14.222-12.088-22.754-29.154-23.466-47.642l-6.4-186.302-41.954-130.838c-14.222-43.376-6.4-91.729 20.621-128.705s70.397-59.019 116.617-59.019h612.237c61.864 0 114.483 37.687 135.105 94.573h113.061c0 0 0 0 0 0s0.711 0 0.711 0l193.413-46.931c4.978-1.422 10.666-2.133 15.644-2.133 24.888 0 48.353 14.222 59.73 37.687 12.799 28.443 4.266 61.864-21.332 80.352zM256.57 743.453h113.772l83.196-155.015h-196.968v155.015zM696.016 123.394h-492.065c-42.665 0-73.241 41.954-60.442 82.485l58.308 182.036c12.088 37.687 56.175 55.464 91.018 35.554l433.757-182.036c57.597-31.287 34.843-118.039-30.576-118.039z" />
<glyph unicode="&#xe93e;" glyph-name="Terna" horiz-adv-x="1376" d="M1343.378 62.973l-222.201 271.661c-10.335 12.549-25.099 16.979-34.696 11.073l-106.302-72.344c-4.429-2.953-8.859-7.382-11.812-11.812-0.738 0.738-0.738 1.476 0 1.476-3.691 8.12-36.91 92.276-39.863 101.135l-8.12 25.099c-2.214 6.644-7.382 11.812-14.026 14.026h-83.417l-129.925 280.519c-6.644 14.765-21.408 23.622-36.91 23.622h-195.625c-22.885 0-40.601-18.455-40.601-40.601v-263.541h-6.644l-104.088 516.745c-4.429 22.146-23.622 38.387-45.769 39.863-22.885 1.476-43.554-12.549-50.936-33.957l-105.564-314.477c0-0.738 0-1.476-0.738-1.476-1.476-0.738-2.214-1.476-3.691-2.214-63.486-22.146-95.229-79.727-71.607-146.165 30.267-88.585 97.443-93.752 179.385-116.637 23.622-5.906 41.34-15.502 58.318-3.691 49.46 32.481-28.052 64.224-32.481 77.511l-29.528 147.642c-1.476 7.382 0.738 23.622 5.167 43.554l35.434 106.302 76.036-377.962-5.167-48.722c-33.22-37.649-53.889-87.109-53.889-140.998 0-117.375 95.229-212.604 212.604-212.604 109.255 0 200.054 83.417 211.127 189.72h44.293c-0.738-7.382-1.476-14.026-1.476-21.408 0-93.015 75.297-168.312 168.312-168.312 67.915 0 126.233 39.863 152.81 97.443 1.476-0.738 2.214-2.214 3.691-2.953 23.622-18.455 50.198-30.267 75.297-33.22 10.335-1.476 19.932-1.476 29.528 0l178.646 25.099c7.382 0.738 13.288 6.644 14.026 14.765 0 8.12-2.953 17.717-9.596 25.837zM476.722 77.737c-39.126 0-70.868 31.743-70.868 70.868s31.743 70.868 70.868 70.868c39.126 0 70.868-31.743 70.868-70.868s-31.743-70.868-70.868-70.868zM501.083 409.192v215.556h129.186l99.658-215.556h-228.845zM898.977 48.208c-31.005 0-56.104 25.099-56.104 56.104s25.099 56.104 56.104 56.104c31.005 0 56.104-25.099 56.104-56.104s-25.099-56.104-56.104-56.104z" />
<glyph unicode="&#xe93f;" glyph-name="Vibrofinitrice" horiz-adv-x="1328" d="M1315.184 643.928c-13.289 19.934-35.438 31.008-59.801 31.008h-523.444c-21.41 0-41.344-9.598-55.371-25.102-14.027-16.242-19.934-37.652-16.242-58.324l13.289-79.735h-28.793l-158.731 296.052c-11.813 22.149-35.438 36.176-60.539 36.176h-229.606c-38.391 0-68.66-31.008-68.66-68.66v-300.482c0-4.43 0.738-8.859 1.477-12.551-1.477-3.691-2.215-7.383-2.215-11.813l-17.719-151.348h-4.43c-29.531 0-56.11-19.195-65.707-47.988l-35.438-108.528c-6.645-20.672-2.953-44.297 9.598-62.016 13.289-17.719 33.961-28.793 56.11-28.793h177.927c31.746 0 58.324 21.41 66.446 50.203 36.914-31.008 84.164-50.203 136.583-50.203 69.399 0 131.415 33.961 169.805 85.641h89.332c13.289-49.465 58.324-85.641 112.219-85.641s98.93 36.176 112.219 85.641h39.129c13.289-49.465 58.324-85.641 112.219-85.641 64.231 0 116.649 52.418 116.649 116.649 0 18.457-4.43 36.176-12.551 51.68l135.106 356.591c7.383 22.887 4.43 47.25-8.859 67.184zM264.605 543.522v162.423h118.864l87.118-162.423h-205.981zM449.176 193.575c-38.391 0-70.137 31.746-70.137 70.137s31.746 70.137 70.137 70.137c38.391 0 70.137-31.746 70.137-70.137s-31.746-70.137-70.137-70.137zM819.795 130.082c-21.41 0-38.391 16.981-38.391 38.391s16.981 38.391 38.391 38.391c21.41 0 38.391-16.981 38.391-38.391s-16.981-38.391-38.391-38.391zM1083.363 130.082c-21.41 0-38.391 16.981-38.391 38.391s16.981 38.391 38.391 38.391c21.41 0 38.391-16.981 38.391-38.391s-16.981-38.391-38.391-38.391z" />
<glyph unicode="&#xe940;" glyph-name="battery-empty-solid" horiz-adv-x="1280" d="M1088 640v-128h64v-128h-64v-128h-960v384h960zM1120 768h-1024c-53.020 0-96-42.98-96-96v-448c0-53.020 42.98-96 96-96h1024c53.020 0 96 42.98 96 96v32h16c26.51 0 48 21.49 48 48v288c0 26.51-21.49 48-48 48h-16v32c0 53.020-42.98 96-96 96z" />
<glyph unicode="&#xe941;" glyph-name="battery-quarter-solid" horiz-adv-x="1280" d="M1088 640v-128h64v-128h-64v-128h-960v384h960zM1120 768h-1024c-53.020 0-96-42.98-96-96v-448c0-53.020 42.98-96 96-96h1024c53.020 0 96 42.98 96 96v32h16c26.51 0 48 21.49 48 48v288c0 26.51-21.49 48-48 48h-16v32c0 53.020-42.98 96-96 96zM448 576h-256v-256h256v256z" />
<glyph unicode="&#xe942;" glyph-name="battery-half-solid" horiz-adv-x="1280" d="M1088 640v-128h64v-128h-64v-128h-960v384h960zM1120 768h-1024c-53.020 0-96-42.98-96-96v-448c0-53.020 42.98-96 96-96h1024c53.020 0 96 42.98 96 96v32h16c26.51 0 48 21.49 48 48v288c0 26.51-21.49 48-48 48h-16v32c0 53.020-42.98 96-96 96zM640 576h-448v-256h448v256z" />
<glyph unicode="&#xe943;" glyph-name="battery-three-quarters-solid" horiz-adv-x="1280" d="M1088 640v-128h64v-128h-64v-128h-960v384h960zM1120 768h-1024c-53.020 0-96-42.98-96-96v-448c0-53.020 42.98-96 96-96h1024c53.020 0 96 42.98 96 96v32h16c26.51 0 48 21.49 48 48v288c0 26.51-21.49 48-48 48h-16v32c0 53.020-42.98 96-96 96zM832 576h-640v-256h640v256z" />
<glyph unicode="&#xe944;" glyph-name="battery-full-solid" horiz-adv-x="1280" d="M1088 640v-128h64v-128h-64v-128h-960v384h960zM1120 768h-1024c-53.020 0-96-42.98-96-96v-448c0-53.020 42.98-96 96-96h1024c53.020 0 96 42.98 96 96v32h16c26.51 0 48 21.49 48 48v288c0 26.51-21.49 48-48 48h-16v32c0 53.020-42.98 96-96 96zM1024 576h-832v-256h832v256z" />
<glyph unicode="&#xe945;" glyph-name="Calendario" horiz-adv-x="896" d="M0 32c0-53 43-96 96-96h704c53 0 96 43 96 96v544h-896v-544zM640 424c0 13.2 10.8 24 24 24h80c13.2 0 24-10.8 24-24v-80c0-13.2-10.8-24-24-24h-80c-13.2 0-24 10.8-24 24v80zM640 168c0 13.2 10.8 24 24 24h80c13.2 0 24-10.8 24-24v-80c0-13.2-10.8-24-24-24h-80c-13.2 0-24 10.8-24 24v80zM384 424c0 13.2 10.8 24 24 24h80c13.2 0 24-10.8 24-24v-80c0-13.2-10.8-24-24-24h-80c-13.2 0-24 10.8-24 24v80zM384 168c0 13.2 10.8 24 24 24h80c13.2 0 24-10.8 24-24v-80c0-13.2-10.8-24-24-24h-80c-13.2 0-24 10.8-24 24v80zM128 424c0 13.2 10.8 24 24 24h80c13.2 0 24-10.8 24-24v-80c0-13.2-10.8-24-24-24h-80c-13.2 0-24 10.8-24 24v80zM128 168c0 13.2 10.8 24 24 24h80c13.2 0 24-10.8 24-24v-80c0-13.2-10.8-24-24-24h-80c-13.2 0-24 10.8-24 24v80zM800 832h-96v96c0 17.6-14.4 32-32 32h-64c-17.6 0-32-14.4-32-32v-96h-256v96c0 17.6-14.4 32-32 32h-64c-17.6 0-32-14.4-32-32v-96h-96c-53 0-96-43-96-96v-96h896v96c0 53-43 96-96 96z" />
<glyph unicode="&#xe946;" glyph-name="Messaggio" d="M512 896c-282.8 0-512-186.2-512-416 0-99.2 42.8-190 114-261.4-25-100.8-108.6-190.6-109.6-191.6-4.4-4.6-5.6-11.4-3-17.4s8.2-9.6 14.6-9.6c132.6 0 232 63.6 281.2 102.8 65.4-24.6 138-38.8 214.8-38.8 282.8 0 512 186.2 512 416s-229.2 416-512 416zM256 416c-35.4 0-64 28.6-64 64s28.6 64 64 64 64-28.6 64-64-28.6-64-64-64zM512 416c-35.4 0-64 28.6-64 64s28.6 64 64 64 64-28.6 64-64-28.6-64-64-64zM768 416c-35.4 0-64 28.6-64 64s28.6 64 64 64 64-28.6 64-64-28.6-64-64-64z" />
<glyph unicode="&#xe947;" glyph-name="Fingerprint" d="M512.24 468.080c-26.5 0-48-21.48-48-48 2.28-144.5-16.28-283.8-55.4-423.1-5.46-19.44 4.3-60.98 46.24-60.98 20.96 0 40.22 13.84 46.18 35.040 27.060 95.82 62.080 250.82 58.96 449.040 0.020 26.5-21.46 48-47.98 48zM510.52 631.54c-122.52 0.14-208.020-94.14-206.32-202.18 1.5-95.88-7.5-191.82-26.74-285.1-5.38-25.96 11.34-51.38 37.28-56.72 26.1-5.34 51.34 11.32 56.72 37.28 20.68 100.18 30.34 203.16 28.74 306.040-0.82 51.9 39.84 104.98 108.9 104.68 62.62-0.94 114.3-50.68 115.24-110.94 1.54-96.1-5.62-192.66-21.22-287.1-4.34-26.12 13.38-50.84 39.52-55.16 39.94-6.66 53.62 30.2 55.16 39.54 16.56 100.060 24.12 202.42 22.54 304.22-1.76 111.6-95.88 203.76-209.82 205.44zM289.14 671.1c-20.6 16.68-50.74 13.6-67.52-6.96-51.24-63-78.78-142.56-77.5-224 1.18-75.16-4.94-150.54-18.22-224.1-4.68-26.1 12.62-51.060 38.72-55.78 40.22-7 54.14 29.62 55.78 38.72 14.38 79.68 21 161.32 19.72 242.66-0.94 59.76 18.4 115.76 56 161.94 16.7 20.56 13.58 50.78-6.98 67.52zM508.080 795.76c-30.82 0.82-61.74-2.88-91.56-9.94-25.78-6.12-41.74-31.96-35.66-57.78 6.12-25.78 32-41.66 57.78-35.66 22.1 5.22 44.94 7.54 68 7.38 150.86-2.26 275.46-123 277.76-269.16 1.18-75.76-2.56-152.22-11.16-227.26-3-26.34 15.9-50.16 42.22-53.16 33.44-3.9 51.020 23.76 53.16 42.22 7.643 63.285 12.004 136.566 12.004 210.866 0 10.138-0.081 20.257-0.243 30.356l0.019-1.522c-3.12 197.5-170.14 360.66-372.32 363.66zM1012.22 552.86c-5.72 25.84-31.020 42.4-57.22 36.54-25.88-5.72-42.24-31.32-36.52-57.22 9.42-42.82 9.82-74.82 9.4-123.2-0.22-26.54 21.1-48.18 47.6-48.4h0.4c26.34 0 47.78 21.22 48 47.6 0.36 44.36 0.8 88.22-11.66 144.68zM931.98 734.3c-97.4 138.78-256.78 223.12-426.36 225.66-139.58 1.68-268.68-49.78-364.7-145.84-92.74-92.86-142.72-216.2-140.64-347.42l-0.24-42.94c-0.78-26.5 20.060-48.62 46.56-49.38 0.46-0.040 0.96-0.040 1.44-0.040 25.84 0 47.18 20.6 47.94 46.6l0.32 47.28c-1.66 105 38.32 203.72 112.56 278 77.52 77.6 182.68 119.34 295.36 117.72 138.9-2.060 269.46-71.12 349.24-184.78 15.22-21.72 45.12-26.9 66.84-11.72 21.68 15.24 26.92 45.18 11.68 66.86z" />
<glyph unicode="&#xe948;" glyph-name="Strada" horiz-adv-x="1152" d="M1146.38 154.66l-279.58 640c-9.94 22.76-31.6 37.34-55.44 37.34h-195.18l4.9-46.32c1-9.44-6.42-17.68-15.92-17.68h-58.32c-9.5 0-16.92 8.24-15.92 17.68l4.9 46.32h-195.18c-23.86 0-45.52-14.58-55.46-37.34l-279.58-640c-18.5-42.38 11.020-90.66 55.48-90.66h393.68l20.62 195.36c1.72 16.28 15.44 28.64 31.82 28.64h137.6c16.38 0 30.1-12.36 31.82-28.64l20.62-195.36h393.68c44.46 0 73.98 48.28 55.46 90.66zM520.8 689.68c0.879 8.084 7.667 14.32 15.912 14.32 0.003 0 0.006 0 0.009 0h78.58c8.18 0 15.060-6.18 15.92-14.32l9.2-87.16c1.5-14.18-9.62-26.52-23.86-26.52h-81.080c-14.26 0-25.36 12.34-23.86 26.52l9.18 87.16zM631.28 352h-110.58c-19 0-33.82 16.46-31.82 35.36l10.14 96c1.72 16.28 15.44 28.64 31.82 28.64h90.3c16.38 0 30.1-12.36 31.82-28.64l10.14-96c2-18.9-12.82-35.36-31.82-35.36z" />
<glyph unicode="&#xe949;" glyph-name="satellite-dish-solid" d="M610.899 34.82c14.783-14.596 12.377-40.193-6.001-50.007-155.426-83.606-353.451-59.821-484.687 71.416-131.204 131.206-155.020 329.047-71.384 484.663 9.782 18.19 35.38 20.597 50.006 6.001l233.623-233.627 54.788 54.789c-1.375 5.219-3.188 10.001-3.188 15.627 0.001 35.35 28.658 64.007 64.008 64.007s64.008-28.657 64.008-64.008c0-35.351-28.657-64.008-64.008-64.008v0c-5.594 0-10.408 1.782-15.596 3.188l-54.819-54.82zM1023.952 353.865c0.032-0.537 0.050-1.166 0.050-1.798 0-17.734-14.333-32.12-32.046-32.206h-64.235c-16.918 0.052-30.737 13.25-31.781 29.913l-0.005 0.092c-15.002 259.037-223.028 469.067-481.874 483.069-16.761 0.92-30.004 14.736-30.004 31.645 0 0.061 0 0.121 0.001 0.181v-0.009 63.196c0.075 17.72 14.457 32.056 32.188 32.056 0.639 0 1.274-0.019 1.904-0.055l-0.087 0.004c326.448-17.19 588.887-279.634 605.89-606.086zM831.927 354.459c0.047-0.651 0.073-1.411 0.073-2.177 0-17.862-14.444-32.35-32.289-32.422h-64.421c-16.689 0.127-30.343 12.955-31.777 29.289l-0.009 0.122c-13.814 154.022-136.236 277.821-289.849 290.448-16.593 1.227-29.591 14.987-29.598 31.785v64.229c0 0.002 0 0.005 0 0.008 0 17.821 14.447 32.268 32.268 32.268 0.82 0 1.633-0.031 2.437-0.091l-0.107 0.006c220.247-17.002 396.457-193.215 413.271-413.465z" />
<glyph unicode="&#xe94a;" glyph-name="Tachimetro" horiz-adv-x="1152" d="M576 896c-318.12 0-576-257.88-576-576 0-105.6 28.5-204.52 78.12-289.6 11.22-19.24 32.6-30.4 54.88-30.4h886c22.28 0 43.66 11.16 54.88 30.4 49.62 85.080 78.12 184 78.12 289.6 0 318.12-257.88 576-576 576zM576 768c29.42 0 53.16-20.26 60.64-47.3-2.22-4.52-5.28-8.46-6.9-13.34l-18.44-55.34c-10.26-6.98-21.94-12.020-35.28-12.020-35.34 0-64 28.66-64 64s28.64 64 63.98 64zM192 192c-35.34 0-64 28.66-64 64s28.66 64 64 64 64-28.66 64-64-28.66-64-64-64zM288 512c-35.34 0-64 28.66-64 64s28.66 64 64 64 64-28.66 64-64-28.66-64-64-64zM781.54 656.82l-122.66-368c27.38-23.48 45.12-57.9 45.12-96.82 0-23.44-6.76-45.1-17.76-64h-220.48c-11 18.9-17.76 40.56-17.76 64 0 67.88 53 122.86 119.8 127.18l122.68 368.020c8.34 25.12 35.46 38.9 60.72 30.34 25.14-8.38 38.7-35.58 30.34-60.72zM810.86 542.42l31.040 93.1c6.94 2.58 14.26 4.46 22.1 4.46 35.34 0 64-28.66 64-64s-28.66-64-64-64c-22.76 0.020-41.78 12.56-53.14 30.44zM960 192c-35.34 0-64 28.66-64 64s28.66 64 64 64 64-28.66 64-64-28.66-64-64-64z" />
<glyph unicode="&#xe94b;" glyph-name="Tag" d="M0 455.764v408.236c0 53.020 42.98 96 96 96h408.236c26.51 0 50.509-10.745 67.882-28.118l423.764-423.764c37.49-37.49 37.49-98.274 0-135.764l-408.236-408.236c-37.49-37.49-98.274-37.49-135.764 0l-423.764 423.764c-17.373 17.373-28.118 41.372-28.118 67.882v0zM224 832c-53.020 0-96-42.98-96-96s42.98-96 96-96 96 42.98 96 96-42.98 96-96 96z" />
<glyph unicode="&#xe94c;" glyph-name="hand-middle-finger-solid" d="M959.86 325.76c-0.025 34.784-23.834 64-56.043 72.267l-0.517 0.113-71.3 17.86v99.18c0 22.88-19.38 42.58-46.3 47.080l-76.8 12.8c-35.64 5.94-68.9-16.78-68.9-47.060v-64c0-8.837-7.163-16-16-16s-16 7.163-16 16v0 396c0 52.56-40.5 98.4-93.040 100-0.882 0.029-1.919 0.046-2.96 0.046-53.019 0-96-42.981-96-96 0-0.016 0-0.032 0-0.048v0.002-400c0-8.837-7.163-16-16-16s-16 7.163-16 16v0 64c0 30.3-33.26 53.020-68.9 47.080l-61.36-10.24c-36-6-61.74-32.24-61.74-62.76v-294.080c0-8.837-7.163-16-16-16s-16 7.163-16 16v0 152l-54.72-30c-24.671-12.535-41.28-37.725-41.28-66.795 0-0.002 0-0.004 0-0.005v0-146.94c0-0.003 0-0.007 0-0.011 0-20.608 8.354-39.265 21.86-52.769l61.86-61.86c40.532-40.538 96.527-65.613 158.379-65.62h430.001c123.669 0.057 223.9 100.323 223.9 224v0z" />
<glyph unicode="&#xe94d;" glyph-name="Truck-moving" horiz-adv-x="1280" d="M1242.6 485.4l-117 117c-24 24-56.6 37.4-90.6 37.4h-75v192.2c0 35.4-28.6 64-64 64h-832c-35.4 0-64-28.6-64-64v-672c0-88.4 71.6-160 160-160 52.6 0 98.8 25.8 128 64.8 29.2-39.2 75.4-64.8 128-64.8 88.4 0 160 71.6 160 160 0 11-1.2 21.6-3.2 32h326.4c-2.2-10.4-3.2-21-3.2-32 0-88.4 71.6-160 160-160s160 71.6 160 160c0 11-1.2 21.6-3.2 32h35.2c17.6 0 32 14.4 32 32v171c0 34-13.4 66.4-37.4 90.4zM160 96c-35.2 0-64 28.8-64 64s28.8 64 64 64 64-28.8 64-64-28.8-64-64-64zM416 96c-35.2 0-64 28.8-64 64s28.8 64 64 64 64-28.8 64-64-28.8-64-64-64zM960 544h75c8.6 0 16.6-3.4 22.6-9.4l86.6-86.6h-184.2v96zM1056 96c-35.2 0-64 28.8-64 64s28.8 64 64 64 64-28.8 64-64-28.8-64-64-64z" />
<glyph unicode="&#xe94e;" glyph-name="Dot" d="M512 944c-274 0-496-222-496-496s222-496 496-496 496 222 496 496-222 496-496 496z" />
<glyph unicode="&#xe94f;" glyph-name="Clock" d="M512 944c-274 0-496-222-496-496s222-496 496-496 496 222 496 496-222 496-496 496zM512 48c-221 0-400 179-400 400s179 400 400 400 400-179 400-400-179-400-400-400zM635.6 256.8l-169.8 123.4c-6.2 4.6-9.8 11.8-9.8 19.4v328.4c0 13.2 10.8 24 24 24h64c13.2 0 24-10.8 24-24v-283.4l133.6-97.2c10.8-7.8 13-22.8 5.2-33.6l-37.6-51.8c-7.8-10.6-22.8-13-33.6-5.2z" />
<glyph unicode="&#xe950;" glyph-name="Stop" d="M1008 448c0 274-222 496-496 496s-496-222-496-496 222-496 496-496 496 222 496 496zM112 448c0 221 179 400 400 400s400-179 400-400-179-400-400-400-400 179-400 400zM704 608v-320c0-17.6-14.4-32-32-32h-320c-17.6 0-32 14.4-32 32v320c0 17.6 14.4 32 32 32h320c17.6 0 32-14.4 32-32z" />
<glyph unicode="&#xe951;" glyph-name="Temperatura" d="M832 960c-105.8 0-192-86.2-192-192s86.2-192 192-192 192 86.2 192 192-86.2 192-192 192zM832 704c-35.4 0-64 28.6-64 64s28.6 64 64 64 64-28.6 64-64-28.6-64-64-64zM512 736c0 123.8-100.2 224-224 224s-224-100.2-224-224v-333c-39.4-49.4-64-111-64-179 0-159 129-288 288-288s288 129 288 288c0 68-24.6 129.8-64 179v333zM288 64c-88.2 0-160 71.8-160 160 0 51 24.4 97.8 64 127.6v384.4c0 53 43 96 96 96s96-43 96-96v-384.4c39.6-29.6 64-76.6 64-127.6 0-88.2-71.8-160-160-160zM320 314.2v37.8c0 17.6-14.4 32-32 32s-32-14.4-32-32v-37.8c-37.2-13.2-64-48.4-64-90.2 0-53 43-96 96-96s96 43 96 96c0 41.8-26.8 77-64 90.2z" />
<glyph unicode="&#xe952;" glyph-name="Autista" horiz-adv-x="896" d="M128 512h27c49.4-113 161.8-192 293-192s243.6 79 293 192h27c17.6 0 32 14.4 32 32v192c0 17.6-14.4 32-32 32h-27c-49.4 113-161.8 192-293 192s-243.6-79-293-192h-27c-17.6 0-32-14.4-32-32v-192c0-17.6 14.4-32 32-32zM208 688c0 44.2 43 80 96 80h288c53 0 96-35.8 96-80v-48c0-106-86-192-192-192h-96c-106 0-192 86-192 192v48zM352 544l24 72 72 24-72 24-24 72-24-72-72-24 72-24 24-72zM655.2 317.2c-59.8-38.6-130.8-61.2-207.2-61.2s-147.4 22.6-207.2 61.2c-135-14.2-240.8-127.2-240.8-266v-19.2c0-53 43-96 96-96h160v128c0 35.4 28.6 64 64 64h256c35.4 0 64-28.6 64-64v-128h160c53 0 96 43 96 96v19.2c0 138.8-105.8 251.8-240.8 266zM544 64c-17.6 0-32-14.4-32-32s14.4-32 32-32 32 14.4 32 32-14.4 32-32 32zM352 64c-17.6 0-32-14.4-32-32v-96h64v96c0 17.6-14.4 32-32 32z" />
</font>
</defs>
</svg>
